<svg xmlns="http://www.w3.org/2000/svg" xmlns:xlink="http://www.w3.org/1999/xlink" viewBox="0 0 77.33 54.19"><defs><style>.cls-1,.cls-3{fill:#b974a7;}.cls-1{stroke:#fff;}.cls-1,.cls-4{stroke-miterlimit:10;stroke-width:0.5px;}.cls-2{fill:#fff;}.cls-4{stroke:#b974a7;fill:url(#未命名的渐变_16);}</style><linearGradient id="未命名的渐变_16" x1="34.1" y1="40.49" x2="42.54" y2="40.49" gradientUnits="userSpaceOnUse"><stop offset="0" stop-color="#fff"/><stop offset="0.4" stop-color="#3d3d3d"/><stop offset="0.41" stop-color="#fafafa"/><stop offset="1" stop-color="#7f7f7f"/></linearGradient></defs><title>资源 3</title><g id="图层_2" data-name="图层 2"><g id="图层_1-2" data-name="图层 1"><rect class="cls-1" x="0.25" y="0.25" width="76.83" height="53.69" rx="3.39" ry="3.39"/><rect class="cls-2" x="34.19" y="38.03" width="8.35" height="4.17"/><path class="cls-2" d="M44.2,32.19c-1.6,1-1.67,3.12-1.67,5V38H34.19v-.83c0-1.88-.1-4.07-1.67-5a11.15,11.15,0,0,1-5-9.44,10.85,10.85,0,0,1,21.7,0A11.15,11.15,0,0,1,44.2,32.19Z"/><path class="cls-3" d="M40,30.21V38H36.69V30.21a5,5,0,0,1-3.34-4.7h3a2,2,0,1,0,4,0h3A5,5,0,0,1,40,30.21Z"/><line class="cls-4" x1="34.1" y1="40.49" x2="42.54" y2="40.49"/></g></g></svg>