<svg xmlns="http://www.w3.org/2000/svg" viewBox="0 0 76.83 53.69">
    <defs>
        <style>
            .cls-1{fill:#c5e6f2}.cls-2{fill:#e9d931;stroke:#b6811b;stroke-miterlimit:10;stroke-width:.5px}
        </style>
    </defs>
    <g id="图层_2" data-name="图层 2">
        <g id="图层_1-2" data-name="图层 1">
            <rect width="76.83" height="53.69" class="cls-1" rx="3.39" ry="3.39"/>
            <path d="M36.15 22.37l-1.86 7.34a36 36 0 0 1-2.54 7.53 9.31 9.31 0 0 1-2.9 3.45A6.64 6.64 0 0 1 25 41.82a3.13 3.13 0 0 1-2-.52 1.53 1.53 0 0 1-.64-1.22A1.48 1.48 0 0 1 23 39a2 2 0 0 1 1.38-.48 1.52 1.52 0 0 1 1.1.37 1.22 1.22 0 0 1 .38.92 1.05 1.05 0 0 1-.24.75q-.24.25-.24.33l.08.11a.34.34 0 0 0 .22.08 1.16 1.16 0 0 0 .81-.3 4.61 4.61 0 0 0 1.25-1.81q.29-.73 1.1-3.86L32 22.37h-2.17l.52-1.86a3.46 3.46 0 0 0 1.73-.3 3.69 3.69 0 0 0 1.14-1.43 13.56 13.56 0 0 1 3.69-4.62 7.22 7.22 0 0 1 4.32-1.4 3.4 3.4 0 0 1 2.22.59 1.91 1.91 0 0 1 .69 1.53 1.82 1.82 0 0 1-.46 1.31 1.51 1.51 0 0 1-1.14.48 1.45 1.45 0 0 1-1-.4 1.27 1.27 0 0 1-.41-1 1.67 1.67 0 0 1 .26-.84 1.6 1.6 0 0 0 .26-.6.37.37 0 0 0-.12-.29.44.44 0 0 0-.31-.11 2.68 2.68 0 0 0-1.92 1.16 14.13 14.13 0 0 0-2.61 5.88h2.3l-.56 1.86h-2.28z" class="cls-2"/>
            <path d="M39.95 21l5.54-1a15.92 15.92 0 0 1 2.13 5.21A38.63 38.63 0 0 1 50 22.05a7.2 7.2 0 0 1 1.76-1.61 3.05 3.05 0 0 1 1.47-.37 1.8 1.8 0 0 1 1.34.48 1.76 1.76 0 0 1 .43 1.28 1.72 1.72 0 0 1-.47 1.25 1.56 1.56 0 0 1-1.17.48 4.42 4.42 0 0 1-1.17-.18 4.15 4.15 0 0 0-.91-.18 2 2 0 0 0-1.27.48 10.14 10.14 0 0 0-2 2.78q1.35 4.77 2.16 5.81a1.29 1.29 0 0 0 1 .62 1.23 1.23 0 0 0 .71-.21A8.3 8.3 0 0 0 53.25 31l.57.33a10.61 10.61 0 0 1-2.73 3.18 3.48 3.48 0 0 1-2 .71 3 3 0 0 1-1.69-.45 3.82 3.82 0 0 1-1.2-1.48A23.23 23.23 0 0 1 45 30q-1.9 2.4-3 3.48a6.92 6.92 0 0 1-1.76 1.42 3.43 3.43 0 0 1-1.49.33 1.79 1.79 0 0 1-1.31-.48 1.66 1.66 0 0 1-.44-1.23 1.79 1.79 0 0 1 1.86-1.86 2.31 2.31 0 0 1 1 .25 3.15 3.15 0 0 0 1.14.39 1.75 1.75 0 0 0 .83-.19 4.8 4.8 0 0 0 1.21-1q.44-.49 1.64-2.1-1.52-5.65-2.38-6.77a1.65 1.65 0 0 0-1.37-.71 5.38 5.38 0 0 0-1 .13z" class="cls-2"/>
        </g>
    </g>
</svg>
