<?xml version="1.0" encoding="utf-8"?>
<!-- Generator: Adobe Illustrator 22.0.0, SVG Export Plug-In . SVG Version: 6.00 Build 0)  -->
<svg version="1.1" id="图层_1" xmlns="http://www.w3.org/2000/svg" xmlns:xlink="http://www.w3.org/1999/xlink" x="0px" y="0px"
	 viewBox="0 0 24 7" style="enable-background:new 0 0 24 7;" xml:space="preserve">
<style type="text/css">
	.st0{fill:#FFFFFF;}
</style>
<path class="st0" d="M21.7,7H2.3C1.6,7,1,6.5,1,5.8l0,0c0-0.7,0.6-1.2,1.2-1.2h19.5c0.7,0,1.2,0.6,1.2,1.2l0,0C23,6.5,22.4,7,21.7,7
	z"/>
<path class="st0" d="M15,0H9C8.2,0,7.5,0.7,7.5,1.5v3.4h9V1.5C16.5,0.7,15.8,0,15,0z M15.1,3.8C15.1,3.9,15,4,14.9,4H9.3
	C9.2,4,9.1,3.9,9.1,3.8V2c0-0.3,0.4-0.6,0.8-0.6h4.6c0.3,0,0.6,0.2,0.6,0.5V3.8z"/>
</svg>
