<svg xmlns="http://www.w3.org/2000/svg" viewBox="0 0 77.33 54.19"><defs><style>.cls-1{fill:#4fa54c;stroke:#fff;stroke-miterlimit:10;stroke-width:0.5px;}.cls-2{fill:#fff;}</style></defs><title>资源 2</title><g id="图层_2" data-name="图层 2"><g id="图层_1-2" data-name="图层 1"><rect class="cls-1" x="0.25" y="0.25" width="76.83" height="53.69" rx="3.39" ry="3.39"/><g id="Layer_34" data-name="Layer 34"><path class="cls-2" d="M31.2,34H26.74a3.34,3.34,0,0,1-3.34-3.34V23.94a3.34,3.34,0,0,1,3.34-3.34H31.2a1.11,1.11,0,0,1,1.11,1.11V32.86A1.11,1.11,0,0,1,31.2,34Z"/><path class="cls-2" d="M42.35,32.86V30.63a3.34,3.34,0,0,0,2.36-5.71l1.58-1.58a5.57,5.57,0,0,1-3.95,9.52Z"/><path class="cls-2" d="M51.8,37.86A1.11,1.11,0,0,1,51,36h0a12.26,12.26,0,0,0,0-17.33A1.12,1.12,0,1,1,52.6,17a14.49,14.49,0,0,1,0,20.49A1.11,1.11,0,0,1,51.8,37.86Z"/><path class="cls-2" d="M48.65,34.7a1.05,1.05,0,0,1-.72-1.84,7.8,7.8,0,0,0,0-11h0a1.11,1.11,0,0,1,1.57-1.57,10,10,0,0,1,0,14.18A1.11,1.11,0,0,1,48.65,34.7Z"/><path class="cls-2" d="M42.35,41.78a1.11,1.11,0,0,1-.64-.2l-11.15-7.8a1.11,1.11,0,0,1-.48-.91V21.71a1.11,1.11,0,0,1,.48-.91L41.71,13a1.12,1.12,0,0,1,1.75.91V40.67a1.11,1.11,0,0,1-1.11,1.11Z"/></g></g></g></svg>