<svg xmlns="http://www.w3.org/2000/svg" viewBox="0 0 77.33 54.19"><defs><style>.cls-1{fill:#e9db3b;stroke:#fff;stroke-miterlimit:10;stroke-width:0.5px;}.cls-2{fill:#fff;}</style></defs><title>资源 5</title><g id="图层_2" data-name="图层 2"><g id="图层_1-2" data-name="图层 1"><rect class="cls-1" x="0.25" y="0.25" width="76.83" height="53.69" rx="3.39" ry="3.39"/><path class="cls-2" d="M36.4,22.62,34.54,30A36,36,0,0,1,32,37.49a9.31,9.31,0,0,1-2.9,3.45,6.64,6.64,0,0,1-3.8,1.12,3.13,3.13,0,0,1-2-.52,1.53,1.53,0,0,1-.64-1.22,1.48,1.48,0,0,1,.52-1.13,2,2,0,0,1,1.38-.48,1.52,1.52,0,0,1,1.1.37,1.22,1.22,0,0,1,.38.92,1.05,1.05,0,0,1-.24.75q-.24.25-.24.33l.08.11a.34.34,0,0,0,.22.08,1.16,1.16,0,0,0,.81-.3A4.61,4.61,0,0,0,28,39.18q.29-.73,1.1-3.86l3.24-12.69H30.08l.52-1.86a3.46,3.46,0,0,0,1.73-.3A3.69,3.69,0,0,0,33.48,19a13.56,13.56,0,0,1,3.69-4.62A7.22,7.22,0,0,1,41.49,13a3.4,3.4,0,0,1,2.22.59,1.91,1.91,0,0,1,.69,1.53,1.82,1.82,0,0,1-.46,1.31,1.51,1.51,0,0,1-1.14.48,1.45,1.45,0,0,1-1-.4,1.27,1.27,0,0,1-.41-1,1.67,1.67,0,0,1,.26-.84,1.6,1.6,0,0,0,.26-.6.37.37,0,0,0-.12-.29.44.44,0,0,0-.31-.11,2.68,2.68,0,0,0-1.92,1.16,14.13,14.13,0,0,0-2.61,5.88h2.3l-.56,1.86H36.4Z"/><path class="cls-2" d="M40.2,21.27l5.54-1a15.92,15.92,0,0,1,2.13,5.21,38.63,38.63,0,0,1,2.35-3.22A7.2,7.2,0,0,1,52,20.69a3.05,3.05,0,0,1,1.47-.37,1.8,1.8,0,0,1,1.34.48,1.76,1.76,0,0,1,.47,1.29,1.72,1.72,0,0,1-.47,1.25,1.56,1.56,0,0,1-1.17.48,4.42,4.42,0,0,1-1.17-.18,4.15,4.15,0,0,0-.91-.18,2,2,0,0,0-1.27.48,10.14,10.14,0,0,0-2,2.78q1.35,4.77,2.16,5.81a1.29,1.29,0,0,0,1,.62,1.23,1.23,0,0,0,.71-.21,8.3,8.3,0,0,0,1.41-1.67l.57.33a10.61,10.61,0,0,1-2.73,3.18,3.48,3.48,0,0,1-2,.71A3,3,0,0,1,47.64,35a3.82,3.82,0,0,1-1.2-1.48,23.23,23.23,0,0,1-1.24-3.28q-1.86,2.37-2.91,3.45a6.92,6.92,0,0,1-1.76,1.42,3.43,3.43,0,0,1-1.49.33A1.79,1.79,0,0,1,37.73,35a1.66,1.66,0,0,1-.48-1.24,1.79,1.79,0,0,1,1.86-1.86,2.31,2.31,0,0,1,1,.25,3.15,3.15,0,0,0,1.14.38,1.75,1.75,0,0,0,.83-.19,4.8,4.8,0,0,0,1.21-1q.44-.49,1.64-2.1-1.52-5.65-2.38-6.77a1.65,1.65,0,0,0-1.37-.71,5.38,5.38,0,0,0-1,.13Z"/></g></g></svg>