<svg xmlns="http://www.w3.org/2000/svg" viewBox="0 0 76.83 53.69">
    <defs>
        <style>
            .cls-1{fill:#c5e6f2}.cls-2{fill:#eab534}
        </style>
    </defs>
    <g id="图层_2" data-name="图层 2">
        <g id="图层_1-2" data-name="图层 1">
            <rect width="76.83" height="53.69" class="cls-1" rx="3.39" ry="3.39"/>
            <path d="M34.72 37.54c-9.06-4.15-6.24-15-6.24-15 .51 5.68 3.67 7.64 8.59 9.89" class="cls-2"/>
            <path d="M34.53 41.67l7.78-3.24a1 1 0 0 0 .76-1.59L40.23 29a1 1 0 0 0-1.75.14l-4.94 11.09a1 1 0 0 0 .99 1.44zM41.32 16C50.58 19.08 49 30 49 30c-1.08-5.48-4.36-7.07-9.39-8.75" class="cls-2"/>
            <path d="M41.08 11.93l-7.25 4a1 1 0 0 0-.57 1.62l3.58 7.36a1 1 0 0 0 1.69-.32l3.67-11.35a1 1 0 0 0-1.12-1.31z" class="cls-2"/>
        </g>
    </g>
</svg>
