<svg xmlns="http://www.w3.org/2000/svg" viewBox="0 0 77.33 54.19"><defs><style>.cls-1{fill:#eab534;stroke:#fff;stroke-miterlimit:10;stroke-width:0.5px;}.cls-2{fill:#fff;}</style></defs><title>资源 4</title><g id="图层_2" data-name="图层 2"><g id="图层_1-2" data-name="图层 1"><rect class="cls-1" x="0.25" y="0.25" width="76.83" height="53.69" rx="3.39" ry="3.39"/><path class="cls-2" d="M35,37.79c-9.06-4.15-6.24-15-6.24-15,.51,5.68,3.67,7.64,8.59,9.89"/><path class="cls-2" d="M34.78,41.92l7.78-3.24a1,1,0,0,0,.76-1.59l-2.84-7.86a1,1,0,0,0-1.75.14L33.79,40.48A1,1,0,0,0,34.78,41.92Z"/><path class="cls-2" d="M41.57,16.22c9.26,3.1,7.63,14,7.63,14-1.08-5.48-4.36-7.07-9.39-8.75"/><path class="cls-2" d="M41.33,12.18l-7.25,4a1,1,0,0,0-.57,1.62l3.58,7.36a1,1,0,0,0,1.69-.32l3.67-11.33A1,1,0,0,0,41.33,12.18Z"/></g></g></svg>