<?xml version="1.0" encoding="utf-8"?>
<!-- Generator: Adobe Illustrator 22.0.0, SVG Export Plug-In . SVG Version: 6.00 Build 0)  -->
<svg version="1.1" id="图层_1" xmlns="http://www.w3.org/2000/svg" xmlns:xlink="http://www.w3.org/1999/xlink" x="0px" y="0px"
	 viewBox="0 0 24 26" style="enable-background:new 0 0 24 26;" xml:space="preserve">
<style type="text/css">
	.st0{fill:#FFFFFF;}
</style>
<path class="st0" d="M0.1,0.4v22c0,2,1.7,3.6,3.6,3.6h16.6c2,0,3.6-1.6,3.6-3.5V0.4H0.1z M10.1,18.1c0.1,0.9-0.8,1.8-1.8,1.8
	S6.5,19,6.5,18.1V8.4c0-1,0.9-1.8,1.8-1.8c1,0,1.8,0.9,1.8,1.8V18.1z M17.5,18.1c0,0.9-0.9,1.8-1.8,1.8c-1,0-1.8-0.9-1.8-1.8V8.4
	c0-1,0.9-1.8,1.8-1.8c1,0,1.8,0.9,1.8,1.8V18.1z"/>
</svg>
