<svg xmlns="http://www.w3.org/2000/svg" viewBox="0 0 76.83 53.69">
    <defs>
        <style>
            .cls-1{fill:#c5e6f2}.cls-2{fill:#b974a7}.cls-3{fill:none;stroke:#c5e6f2;stroke-miterlimit:10}
        </style>
    </defs>
    <g id="图层_2" data-name="图层 2">
        <g id="图层_1-2" data-name="图层 1">
            <rect width="76.83" height="53.69" class="cls-1" rx="3.39" ry="3.39"/>
            <path d="M33.94 37.78h8.35v4.17h-8.35zM44 31.94c-1.6 1-1.67 3.12-1.67 5v.83h-8.39v-.83c0-1.88-.1-4.07-1.67-5a11.15 11.15 0 0 1-5-9.44 10.85 10.85 0 0 1 21.7 0A11.15 11.15 0 0 1 44 31.94z" class="cls-2"/>
            <path d="M39.78 30v7.82h-3.34V30a5 5 0 0 1-3.34-4.7h3a2 2 0 1 0 4 0h3a5 5 0 0 1-3.32 4.7z" class="cls-1"/>
            <path d="M33.85 40.24h8.44" class="cls-3"/>
        </g>
    </g>
</svg>
