<svg xmlns="http://www.w3.org/2000/svg" viewBox="0 0 26.05 26.05">
    <defs>
        <style>
            .cls-1{fill:#fff}
        </style>
    </defs>
    <g id="图层_2" data-name="图层 2">
        <g id="图层_1-2" data-name="图层 1">
            <path d="M14.65 0a11.39 11.39 0 0 0-11.4 11.4 11 11 0 0 0 2.3 6.8l-5.1 5.1a1.69 1.69 0 0 0 0 2.3 1.69 1.69 0 0 0 2.3 0l5.1-5.1A11.38 11.38 0 1 0 14.65 0zm0 19.6a8.2 8.2 0 1 1 8.2-8.2 8.24 8.24 0 0 1-8.2 8.2z" class="cls-1"/>
            <path d="M17.85 9.8h-1.6V8.2a1.6 1.6 0 1 0-3.2 0v1.6h-1.6a1.6 1.6 0 1 0 0 3.2H13v1.6a1.6 1.6 0 1 0 3.2 0V13h1.6a1.6 1.6 0 1 0 0-3.2z" class="cls-1"/>
        </g>
    </g>
</svg>
