<svg xmlns="http://www.w3.org/2000/svg" viewBox="0 0 76.83 53.69">
    <defs>
        <style>
            .cls-1{fill:#c5e6f2}.cls-2{fill:#458441}.cls-3{fill:#4fa54c}
        </style>
    </defs>
    <g id="图层_2" data-name="图层 2">
        <g id="图层_1-2" data-name="图层 1">
            <rect width="76.83" height="53.69" class="cls-1" rx="3.39" ry="3.39"/>
            <g id="Layer_34" data-name="Layer 34">
                <path d="M30.95 33.73h-4.46a3.34 3.34 0 0 1-3.34-3.34v-6.7a3.34 3.34 0 0 1 3.34-3.34h4.46a1.11 1.11 0 0 1 1.11 1.11v11.15a1.11 1.11 0 0 1-1.11 1.12z" class="cls-2"/>
                <path d="M42.1 32.61v-2.23a3.34 3.34 0 0 0 2.36-5.71L46 23.09a5.57 5.57 0 0 1-3.95 9.52zM51.55 37.61a1.11 1.11 0 0 1-.8-1.9 12.26 12.26 0 0 0 0-17.33 1.12 1.12 0 1 1 1.58-1.58 14.49 14.49 0 0 1 0 20.49 1.11 1.11 0 0 1-.78.32z" class="cls-3"/>
                <path d="M48.4 34.45a1.05 1.05 0 0 1-.72-1.84 7.8 7.8 0 0 0 0-11A1.11 1.11 0 0 1 49.25 20a10 10 0 0 1 0 14.18 1.11 1.11 0 0 1-.85.27zM42.1 41.53a1.11 1.11 0 0 1-.64-.2l-11.15-7.8a1.11 1.11 0 0 1-.48-.91V21.46a1.11 1.11 0 0 1 .48-.91l11.15-7.8a1.12 1.12 0 0 1 1.75.91v26.76a1.11 1.11 0 0 1-1.11 1.11z" class="cls-3"/>
            </g>
        </g>
    </g>
</svg>
