<svg xmlns="http://www.w3.org/2000/svg" viewBox="0 0 27.51 48.09">
    <defs>
        <style>
            .cls-1{fill:#eed18c;stroke:#fff}.cls-1,.cls-3,.cls-4{stroke-miterlimit:10}.cls-2{fill:#fff}.cls-3{fill:#ef9355;stroke:#8d5e25}.cls-4{fill:#2c99cd;stroke:#1b71ba}
        </style>
    </defs>
    <g id="图层_2" data-name="图层 2">
        <g id="图层_1-2" data-name="图层 1">
            <circle cx="13.76" cy="13.76" r="13.25" class="cls-1" transform="rotate(-81.69 13.758 13.754)"/>
            <path d="M18.86 15.4a5 5 0 0 1-10.07 0H5.62a8.11 8.11 0 0 0 16.23 0z" class="cls-2"/>
            <path d="M10.21 19.2v11.86s-2.46-3.42-4 .55v6.57s4 3.63 5 4.79a4.47 4.47 0 0 1 .89 2.74h10.83v-3.29a5.41 5.41 0 0 1 1.37-2.74 3.66 3.66 0 0 0 1.16-2.26v-7.8s0-1.3-2.33-1.5c0 0-1.37-.27-1.71 1.78a2.61 2.61 0 0 0-1.71-3.25s-1.78-.51-2.05 2A2.19 2.19 0 0 0 15.85 26c-2.29-.4-1.95 2.13-1.95 2.13l-.14-8.93s-.07-1.47-2.05-1.61a1.41 1.41 0 0 0-1.5 1.61z" class="cls-3"/>
            <path d="M8.81 42.72h16.01v4.87H8.81z" class="cls-4"/>
            <circle cx="9.26" cy="9.26" r="2.19" class="cls-2"/>
            <circle cx="18.03" cy="9.26" r="2.19" class="cls-2"/>
        </g>
    </g>
</svg>
