<svg xmlns="http://www.w3.org/2000/svg" viewBox="0 0 49.16 35.48"><defs><style>.cls-1{fill:#fff;}</style></defs><title>资源 6</title><g id="图层_2" data-name="图层 2"><g id="图层_1-2" data-name="图层 1"><path id="path1432" class="cls-1" d="M29.64,16.54C30.22,2.51,8.25-1.9,8,29.08,6.67-10.85,41.62-4.21,40.45,16.54"/><path id="path1432-2" data-name="path1432" class="cls-1" d="M35.19,28.23"/><rect class="cls-1" y="31.98" width="16.25" height="3.5"/><rect class="cls-1" x="28.83" y="31.98" width="16.25" height="3.5"/><path class="cls-1" d="M48.94,16.53,37.32,27.81a2,2,0,0,1-3.37.13L22.23,17a2,2,0,0,1,1.57-3l23.34-.31A2,2,0,0,1,48.94,16.53Z"/><line class="cls-1" x1="44.22" y1="17.39" x2="36.47" y2="24.89"/><path class="cls-1" d="M38.22,12.89S35.59,2.64,24.84,1.64"/></g></g></svg>