<svg xmlns="http://www.w3.org/2000/svg" viewBox="0 0 40.33 33.04">
    <defs>
        <style>
            .cls-1,.cls-2{fill:#505398;stroke:#7c81be;stroke-miterlimit:10}.cls-2{fill:#525996}.cls-3{fill:#6a5652}.cls-4{fill:#b4c35c}.cls-5{fill:#e3ded0}.cls-6{fill:#b4b4b7}
        </style>
    </defs>
    <g id="图层_2" data-name="图层 2">
        <g id="图层_1-2" data-name="图层 1">
            <path d="M38.11 7.13H2.22A1.72 1.72 0 0 0 .5 8.84v22.07a1.63 1.63 0 0 0 1.63 1.63h36.06a1.63 1.63 0 0 0 1.63-1.63V8.84a1.72 1.72 0 0 0-1.71-1.71z" class="cls-1"/>
            <path d="M39.4 32a1.7 1.7 0 0 1-1.2.52H2.13A1.7 1.7 0 0 1 .93 32L16.3 16.66h7.64l3.18 3.18z" class="cls-2"/>
            <path d="M8.06 7.13H2.13a1.7 1.7 0 0 0-1.2.52l7.13 7.13zM38.19 7.13h-5.92v7.64l-5.07 5.06L39.4 7.64a1.7 1.7 0 0 0-1.21-.51z" class="cls-3"/>
            <path d="M8.66 6.81H5.28V1.72A1.72 1.72 0 0 1 7 0a1.72 1.72 0 0 1 1.71 1.72v5.09z" class="cls-4"/>
            <path d="M29.69.14H5.57C6.94.14 8.14 1 8.14 2v14l5.07 3.73 3.18-2.34H24l3.18 2.34L32.27 16V2c0-1-1.2-1.86-2.58-1.86z" class="cls-5"/>
            <path d="M10.72 3.78h18.89v1.2H10.72zM10.72 6.35h18.89v1.2H10.72zM10.72 9.02h18.89v1.2H10.72zM13.89 11.59h12.54v1.2H13.89z" class="cls-6"/>
        </g>
    </g>
</svg>
