<svg xmlns="http://www.w3.org/2000/svg" viewBox="0 0 40.11 32.87">
    <defs>
        <style>
            .cls-1,.cls-2{fill:#d77d35;stroke:#996024;stroke-miterlimit:10}.cls-2{fill:#c66f34}.cls-3{fill:#6a5652}.cls-4{fill:#b4c35c}.cls-5{fill:#e3ded0}.cls-6{fill:#b4b4b7}
        </style>
    </defs>
    <g id="图层_2" data-name="图层 2">
        <g id="图层_1-2" data-name="图层 1">
            <path d="M37.91 7.09H2.21A1.71 1.71 0 0 0 .5 8.8v21.94a1.62 1.62 0 0 0 1.62 1.62H38a1.62 1.62 0 0 0 1.62-1.62V8.8a1.71 1.71 0 0 0-1.71-1.71z" class="cls-1"/>
            <path d="M39.19 31.86a1.69 1.69 0 0 1-1.2.51H2.12a1.69 1.69 0 0 1-1.2-.51l15.29-15.29h7.6L27 19.73z" class="cls-2"/>
            <path d="M8 7.09H2.12a1.69 1.69 0 0 0-1.2.51L8 14.69zM38 7.09h-5.9v7.6l-5 5L39.19 7.6A1.69 1.69 0 0 0 38 7.09z" class="cls-3"/>
            <path d="M8.61 6.78H5.25V1.71A1.71 1.71 0 0 1 7 0a1.71 1.71 0 0 1 1.67 1.71v5.07z" class="cls-4"/>
            <path d="M29.54.14h-24C6.91.14 8.1 1 8.1 2v13.9l5 3.71 3.16-2.33h7.6l3.16 2.33 5-3.71V2C32.1 1 30.9.14 29.54.14z" class="cls-5"/>
            <path d="M10.66 3.76h18.79v1.2H10.66zM10.66 6.32h18.79v1.2H10.66zM10.66 8.97h18.79v1.2H10.66zM13.82 11.53h12.47v1.2H13.82z" class="cls-6"/>
        </g>
    </g>
</svg>
