<svg xmlns="http://www.w3.org/2000/svg" viewBox="0 0 39.55 32.4">
    <defs>
        <style>
            .cls-1,.cls-2{fill:#dfa312;stroke:#998226;stroke-miterlimit:10}.cls-2{fill:#c28f1d}.cls-3{fill:#6a5652}.cls-4{fill:#b4c35c}.cls-5{fill:#e3ded0}.cls-6{fill:#b4b4b7}
        </style>
    </defs>
    <g id="图层_2" data-name="图层 2">
        <g id="图层_1-2" data-name="图层 1">
            <path d="M37.37 7H2.18A1.69 1.69 0 0 0 .5 8.67V30.3a1.6 1.6 0 0 0 1.6 1.6h35.35A1.6 1.6 0 0 0 39 30.3V8.67A1.69 1.69 0 0 0 37.37 7z" class="cls-1"/>
            <path d="M38.63 31.39a1.66 1.66 0 0 1-1.18.51H2.1a1.66 1.66 0 0 1-1.18-.51L16 16.33h7.49l3.11 3.11z" class="cls-2"/>
            <path d="M7.91 7H2.1a1.66 1.66 0 0 0-1.18.51l7 7zM37.45 7h-5.81v7.49l-5 5 12-12A1.66 1.66 0 0 0 37.45 7z" class="cls-3"/>
            <path d="M8.5 6.68H5.19v-5A1.69 1.69 0 0 1 6.87 0a1.69 1.69 0 0 1 1.68 1.68v5z" class="cls-4"/>
            <path d="M29.12.14H5.47C6.81.14 8 .95 8 2v13.7l5 3.66 3.11-2.29h7.49l3.11 2.29 5-3.66V2C31.64.95 30.46.14 29.12.14z" class="cls-5"/>
            <path d="M10.52 3.7h18.52v1.18H10.52zM10.52 6.23h18.52v1.18H10.52zM10.52 8.84h18.52v1.18H10.52zM13.63 11.36h12.29v1.18H13.63z" class="cls-6"/>
        </g>
    </g>
</svg>
