<svg xmlns="http://www.w3.org/2000/svg" viewBox="0 0 40.24 33.02">
    <defs>
        <style>
            .cls-1,.cls-2{fill:#35bcde;stroke:#174198;stroke-miterlimit:10;stroke-width:.86px}.cls-2{fill:#199ac1}.cls-3{fill:#6a5652}.cls-4{fill:#b4c35c}.cls-5{fill:#e3ded0}.cls-6{fill:#b4b4b7}
        </style>
    </defs>
    <g id="图层_2" data-name="图层 2">
        <g id="图层_1-2" data-name="图层 1">
            <path d="M38.09 7.14H2.15A1.72 1.72 0 0 0 .43 8.86V31a1.63 1.63 0 0 0 1.63 1.63h36.12A1.63 1.63 0 0 0 39.81 31V8.86a1.72 1.72 0 0 0-1.72-1.72z" class="cls-1"/>
            <path d="M39.38 32.07a1.7 1.7 0 0 1-1.2.52H2.06a1.7 1.7 0 0 1-1.2-.52l15.39-15.39h7.65l3.18 3.18z" class="cls-2"/>
            <path d="M8 7.14H2.06a1.7 1.7 0 0 0-1.2.52L8 14.79zM38.18 7.14h-5.93v7.65l-5.07 5.07 12.2-12.21a1.7 1.7 0 0 0-1.2-.51z" class="cls-3"/>
            <path d="M8.6 6.82H5.22v-5.1A1.72 1.72 0 0 1 6.94 0a1.72 1.72 0 0 1 1.72 1.72v5.1z" class="cls-4"/>
            <path d="M29.67.14H5.5C6.88.14 8.08 1 8.08 2v14l5.07 3.74 3.18-2.34H24l3.18 2.34L32.25 16V2c0-1-1.25-1.86-2.58-1.86z" class="cls-5"/>
            <path d="M10.66 3.78h18.92v1.2H10.66zM10.66 6.36h18.92v1.2H10.66zM10.66 9.03h18.92v1.2H10.66zM13.84 11.61h12.55v1.2H13.84z" class="cls-6"/>
        </g>
    </g>
</svg>
