<svg xmlns="http://www.w3.org/2000/svg" viewBox="0 0 39.39 32.27">
    <defs>
        <style>
            .cls-1,.cls-2{fill:#ac75a2;stroke:#893b92;stroke-miterlimit:10}.cls-2{fill:#9d6b96}.cls-3{fill:#6a5652}.cls-4{fill:#b4c35c}.cls-5{fill:#e3ded0}.cls-6{fill:#b4b4b7}
        </style>
    </defs>
    <g id="图层_2" data-name="图层 2">
        <g id="图层_1-2" data-name="图层 1">
            <path d="M37.21 7h-35A1.68 1.68 0 0 0 .5 8.63v21.54a1.59 1.59 0 0 0 1.59 1.59H37.3a1.59 1.59 0 0 0 1.59-1.59V8.63A1.68 1.68 0 0 0 37.21 7z" class="cls-1"/>
            <path d="M38.47 31.26a1.65 1.65 0 0 1-1.17.5H2.09a1.65 1.65 0 0 1-1.17-.5l15-15h7.46l3.1 3.1z" class="cls-2"/>
            <path d="M7.88 7H2.09a1.65 1.65 0 0 0-1.17.5l7 7zM37.3 7h-5.79v7.46l-4.95 4.95 11.9-11.9A1.65 1.65 0 0 0 37.3 7z" class="cls-3"/>
            <path d="M8.46 6.65H5.17v-5A1.68 1.68 0 0 1 6.84 0a1.68 1.68 0 0 1 1.68 1.68v5z" class="cls-4"/>
            <path d="M29 .14H5.45C6.79.14 8 .94 8 2v13.64l4.95 3.64L16 17h7.46l3.1 2.28 4.95-3.64V2C31.51.94 30.34.14 29 .14z" class="cls-5"/>
            <path d="M10.47 3.69h18.44v1.17H10.47zM10.47 6.2h18.44v1.17H10.47zM10.47 8.8h18.44v1.17H10.47zM13.58 11.32h12.24v1.17H13.58z" class="cls-6"/>
        </g>
    </g>
</svg>
