<svg xmlns="http://www.w3.org/2000/svg" viewBox="0 0 39.19 32.1">
    <defs>
        <style>
            .cls-1,.cls-2{fill:#219e56;stroke:#347337;stroke-miterlimit:10}.cls-2{fill:#208d4b}.cls-3{fill:#6a5652}.cls-4{fill:#b4c35c}.cls-5{fill:#e3ded0}.cls-6{fill:#b4b4b7}
        </style>
    </defs>
    <g id="图层_2" data-name="图层 2">
        <g id="图层_1-2" data-name="图层 1">
            <path d="M37 6.92H2.17A1.67 1.67 0 0 0 .5 8.59V30a1.58 1.58 0 0 0 1.58 1.6h35a1.58 1.58 0 0 0 1.61-1.6V8.59A1.67 1.67 0 0 0 37 6.92z" class="cls-1"/>
            <path d="M38.27 31.1a1.65 1.65 0 0 1-1.17.5h-35a1.65 1.65 0 0 1-1.17-.5l14.91-14.92h7.42l3.09 3.09z" class="cls-2"/>
            <path d="M7.84 6.92H2.08a1.65 1.65 0 0 0-1.17.5l6.92 6.92zM37.1 6.92h-5.75v7.42l-4.92 4.92L38.27 7.42a1.65 1.65 0 0 0-1.17-.5z" class="cls-3"/>
            <path d="M8.42 6.61H5.14V1.67A1.67 1.67 0 0 1 6.81 0a1.67 1.67 0 0 1 1.67 1.67v4.94z" class="cls-4"/>
            <path d="M28.85.14H5.42c1.33 0 2.5.8 2.5 1.84v13.57l4.92 3.62 3.09-2.27h7.42l3.09 2.27 4.92-3.62V2C31.35.94 30.18.14 28.85.14z" class="cls-5"/>
            <path d="M10.42 3.67h18.34v1.17H10.42zM10.42 6.17h18.34v1.17H10.42zM10.42 8.75h18.34v1.17H10.42zM13.51 11.26h12.17v1.17H13.51z" class="cls-6"/>
        </g>
    </g>
</svg>
