<svg xmlns="http://www.w3.org/2000/svg" viewBox="0 0 39.85 32.7">
    <defs>
        <style>
            .cls-1,.cls-2{fill:#de504f;stroke:#81261f;stroke-miterlimit:10;stroke-width:.85px}.cls-2{fill:#bd4442}.cls-3{fill:#6a5652}.cls-4{fill:#b4c35c}.cls-5{fill:#e3ded0}.cls-6{fill:#b4b4b7}
        </style>
    </defs>
    <g id="图层_2" data-name="图层 2">
        <g id="图层_1-2" data-name="图层 1">
            <path d="M37.72 7.07H2.13a1.71 1.71 0 0 0-1.7 1.7v21.89A1.62 1.62 0 0 0 2 32.27h35.81a1.62 1.62 0 0 0 1.62-1.62V8.77a1.71 1.71 0 0 0-1.71-1.7z" class="cls-1"/>
            <path d="M39 31.76a1.68 1.68 0 0 1-1.19.51H2a1.68 1.68 0 0 1-1.19-.51l15.28-15.24h7.58l3.15 3.15z" class="cls-2"/>
            <path d="M7.92 7.07H2a1.68 1.68 0 0 0-1.19.51l7.07 7.07zM37.81 7.07h-5.88v7.58l-5 5L39 7.58a1.68 1.68 0 0 0-1.19-.51z" class="cls-3"/>
            <path d="M8.52 6.76H5.17V1.7A1.71 1.71 0 0 1 6.87 0a1.71 1.71 0 0 1 1.7 1.7v5.06z" class="cls-4"/>
            <path d="M29.38.14H5.45C6.81.14 8 1 8 2v13.88l5 3.7 3.15-2.32h7.58l3.15 2.32 5-3.7V2c.05-1-1.14-1.86-2.5-1.86z" class="cls-5"/>
            <path d="M10.56 3.75h18.73v1.19H10.56zM10.56 6.3h18.73v1.19H10.56zM10.56 8.94h18.73v1.19H10.56zM13.71 11.5h12.43v1.19H13.71z" class="cls-6"/>
        </g>
    </g>
</svg>
