<svg xmlns="http://www.w3.org/2000/svg" viewBox="0 0 41.73 42.19">
    <defs>
        <style>
            .cls-1{fill:#182347}.cls-1,.cls-2,.cls-4{stroke:#fff}.cls-1,.cls-2,.cls-4,.cls-5{stroke-miterlimit:10}.cls-2{fill:#219e56}.cls-3{fill:#fff}.cls-4,.cls-5{fill:none}.cls-4{stroke-width:.38px}.cls-5{stroke:#d6d6d6;stroke-width:.76px}
        </style>
    </defs>
    <g id="图层_2" data-name="图层 2">
        <g id="图层_1-2" data-name="图层 1">
            <path d="M16.65 37.19h8.99v4.5h-8.99z" class="cls-1"/>
            <path d="M27.44 30.9c-1.72 1.07-1.8 3.36-1.8 5.39v.9h-9v-.9c0-2-.11-4.38-1.8-5.39a12 12 0 0 1-5.38-10.17A11.55 11.55 0 0 1 21.15 9.32a11.55 11.55 0 0 1 11.68 11.41 12 12 0 0 1-5.39 10.17z" class="cls-2"/>
            <path d="M22.94 28.77v8.42h-3.6v-8.42a5.38 5.38 0 0 1-3.6-5.06H19a2.16 2.16 0 1 0 4.32 0h3.24a5.38 5.38 0 0 1-3.62 5.06z" class="cls-3"/>
            <path d="M19.14 12.23a9.57 9.57 0 0 0-6 6.88" class="cls-4"/>
            <path d="M16.79 39.15l8.99.09" class="cls-5"/>
            <path d="M21 7.79c.17 0 .29-.09.3-.22.12-2.24.1-4.53.07-6.74V.27C21.34.11 21.21 0 21 0s-.39.1-.39.28v.63c0 2.19 0 4.45.07 6.66a.26.26 0 0 0 .32.22zM10 3.44c1 1.9 2 3.86 3.21 5.69a.2.2 0 0 0 .17.1.24.24 0 0 0 .12 0 .32.32 0 0 0 .16-.39c-1-2-2.09-4-3.17-5.84l-.28-.48a.24.24 0 0 0-.34-.08c-.15.08-.3.31-.21.49zM8.67 14.13c-1.92-1-3.94-1.83-5.89-2.65l-.47-.2a.24.24 0 0 0-.32.15c-.07.16-.06.44.12.52l.56.25c1.9.86 3.87 1.74 5.84 2.46h.07a.21.21 0 0 0 .19-.14.32.32 0 0 0-.1-.39zM7.15 21.33c-2.15-.14-4.3-.14-6.4-.13H.24a.25.25 0 0 0-.24.28c0 .2.12.42.3.42h3.94c1.13 0 2 0 3-.07a.21.21 0 0 0 .2-.23.31.31 0 0 0-.29-.27zM28.24 9.2a.24.24 0 0 0 .12 0 .2.2 0 0 0 .17-.1c1.17-1.84 2.23-3.8 3.26-5.7l.29-.54c.1-.18-.05-.41-.21-.49a.24.24 0 0 0-.34.08l-.27.55c-1.09 1.9-2.21 3.86-3.18 5.86a.32.32 0 0 0 .16.34zM39.63 12c.18-.08.19-.36.12-.52a.24.24 0 0 0-.32-.15l-.49.21c-1.95.82-4 1.67-5.88 2.64a.32.32 0 0 0-.1.4.21.21 0 0 0 .19.14h.07c2-.72 3.94-1.61 5.84-2.46zM41.5 21.21H41c-2.1 0-4.28 0-6.4.13a.31.31 0 0 0-.24.33.21.21 0 0 0 .2.23c1 .05 2 .07 3 .07H41.47c.18 0 .31-.22.3-.42a.25.25 0 0 0-.27-.34z" class="cls-3"/>
        </g>
    </g>
</svg>
