<svg xmlns="http://www.w3.org/2000/svg" viewBox="0 0 43.17 43.35">
    <defs>
        <style>
            .cls-1{fill:#182347}.cls-1,.cls-2,.cls-4{stroke:#fff}.cls-1,.cls-2,.cls-4,.cls-5{stroke-miterlimit:10}.cls-2{fill:#23a4da}.cls-3{fill:#fff}.cls-4,.cls-5{fill:none}.cls-4{stroke-width:.39px}.cls-5{stroke:#d6d6d6;stroke-width:.79px}
        </style>
    </defs>
    <g id="图层_2" data-name="图层 2">
        <g id="图层_1-2" data-name="图层 1">
            <path d="M17.48 38.2h9.3v4.65h-9.3z" class="cls-1"/>
            <path d="M28.64 31.7c-1.78 1.1-1.86 3.48-1.86 5.58v.93h-9.3v-.93c0-2.1-.11-4.53-1.86-5.58A12.42 12.42 0 0 1 10 21.18a12 12 0 0 1 12.13-11.8 12 12 0 0 1 12.09 11.8 12.42 12.42 0 0 1-5.58 10.52z" class="cls-2"/>
            <path d="M24 29.49v8.71h-3.73v-8.71a5.56 5.56 0 0 1-3.72-5.24h3.35a2.23 2.23 0 1 0 4.46 0h3.35A5.56 5.56 0 0 1 24 29.49z" class="cls-3"/>
            <path d="M19 12.39a9.9 9.9 0 0 0-6.23 7.12" class="cls-4"/>
            <path d="M17.47 40.22l9.3.1" class="cls-5"/>
            <path d="M21.69 8.05c.17 0 .3-.1.31-.23.13-2.32.1-4.68.08-7V.28c0-.17-.14-.28-.34-.28s-.4.1-.4.29v.65c0 2.26-.05 4.6.08 6.88a.27.27 0 0 0 .27.23zM10.3 3.56c1.06 2 2.17 4 3.37 5.89a.2.2 0 0 0 .17.1.25.25 0 0 0 .12 0 .33.33 0 0 0 .16-.4c-1-2.06-2.16-4.09-3.28-6l-.28-.5a.25.25 0 0 0-.35-.08c-.16.09-.31.32-.21.51zM9 14.61c-2-1-4.07-1.89-6.09-2.74l-.49-.21a.25.25 0 0 0-.33.16c-.07.17-.06.45.13.54l.57.26c2 .88 4 1.8 6 2.55h.07a.22.22 0 0 0 .2-.14.33.33 0 0 0-.06-.42zM7.4 22.06c-2.2-.15-4.45-.14-6.63-.14H.25a.26.26 0 0 0-.25.29c0 .21.12.43.32.44h4.06c1.16 0 2.05 0 3.07-.07a.22.22 0 0 0 .2-.24.32.32 0 0 0-.25-.28zM29.21 9.51a.25.25 0 0 0 .12 0 .2.2 0 0 0 .17-.1c1.21-1.9 2.31-3.93 3.38-5.89l.3-.56c.1-.19-.06-.42-.21-.51a.24.24 0 0 0-.35.08l-.28.49C31.21 5 30 7.05 29 9.12a.33.33 0 0 0 .21.39zM41 12.36c.19-.08.2-.37.13-.54a.25.25 0 0 0-.33-.16l-.5.21c-2 .85-4.1 1.73-6.08 2.74a.33.33 0 0 0-.1.42.22.22 0 0 0 .2.15h.07c2-.75 4.07-1.66 6-2.54zM42.92 21.94h-.53c-2.17 0-4.42 0-6.62.13a.32.32 0 0 0-.25.34.22.22 0 0 0 .2.24c1 .05 2.06.07 3.09.07h4.05c.19 0 .32-.23.32-.44a.26.26 0 0 0-.26-.34z" class="cls-3"/>
        </g>
    </g>
</svg>
