<svg xmlns="http://www.w3.org/2000/svg" viewBox="0 0 41.64 39.39">
    <defs>
        <style>
            .cls-1{fill:#d24165;stroke-miterlimit:10}.cls-1,.cls-13{stroke:#fff}.cls-2{fill:#d3607c}.cls-3{fill:#f1a436}.cls-4{fill:#f1ac47}.cls-5{fill:#e7dd31}.cls-6{fill:#e8e047}.cls-7{fill:#62bfe4}.cls-8{fill:#84cbe6}.cls-9{fill:#4e569b}.cls-10{fill:#6a72ab}.cls-11{fill:#989bc7}.cls-12{fill:#b1b3cb}.cls-13{fill:none;stroke-linecap:round;stroke-linejoin:round;stroke-width:.6px}.cls-14{fill:#fff}.cls-15{fill:#d9d9ed}
        </style>
    </defs>
    <g id="图层_2" data-name="图层 2">
        <g id="图层_1-2" data-name="图层 1">
            <path d="M20.82.5A20.3 20.3 0 0 0 6.91 35.61l1.44-1.53a18.21 18.21 0 1 1 24.65.24l1.44 1.53A20.31 20.31 0 0 0 20.82.5z" class="cls-1"/>
            <path d="M39.58 21.36c0-10.78-8.45-19.55-18.84-19.55S1.89 10.59 1.89 21.36a19.84 19.84 0 0 0 5.94 14.23l1.34-1.47a17.78 17.78 0 0 1-5.33-12.76c0-9.66 7.58-17.52 16.89-17.52s16.89 7.86 16.89 17.52a17.78 17.78 0 0 1-5.57 13l1.34 1.47a19.84 19.84 0 0 0 6.19-14.47z" class="cls-2"/>
            <path d="M20.82 2.6A18.2 18.2 0 0 0 8.35 34.08l.21-.22L10 32.39a15.88 15.88 0 1 1 21.48.24l1.39 1.47.21.22A18.2 18.2 0 0 0 20.82 2.6z" class="cls-3"/>
            <path d="M20.82 4A16.56 16.56 0 0 0 9.47 32.68l.19-.2 1.26-1.34a14.45 14.45 0 1 1 19.55.22l1.26 1.34.19.2A16.57 16.57 0 0 0 20.82 4z" class="cls-4"/>
            <path d="M36.66 20.82A15.84 15.84 0 1 0 10 32.35l1.56-1.65a13.56 13.56 0 1 1 18.29.24l1.56 1.65a15.8 15.8 0 0 0 5.25-11.77z" class="cls-5"/>
            <path d="M35.2 20.63A14.38 14.38 0 1 0 11 31.1l1.42-1.5a12.31 12.31 0 1 1 16.58.22l1.42 1.5a14.35 14.35 0 0 0 4.78-10.69z" class="cls-6"/>
            <path d="M34.29 20.82a13.47 13.47 0 1 0-22.68 9.81L13.14 29a11.23 11.23 0 1 1 15.09.24l1.54 1.63a13.44 13.44 0 0 0 4.52-10.05z" class="cls-7"/>
            <path d="M33 20.65a12.13 12.13 0 1 0-20.43 8.84L13.9 28a10.11 10.11 0 1 1 13.59.21l1.39 1.47A12.11 12.11 0 0 0 33 20.65z" class="cls-8"/>
            <path d="M20.82 9.59A11.22 11.22 0 0 0 13.14 29l.05-.06 1.6-1.69a8.82 8.82 0 1 1 11.79.24l1.6 1.7.05.06a11.22 11.22 0 0 0-7.41-19.66z" class="cls-9"/>
            <path d="M20.82 11a9.61 9.61 0 0 0-6.57 16.62l1.37-1.45a7.55 7.55 0 1 1 10.09.2l1.37 1.45A9.61 9.61 0 0 0 20.82 11z" class="cls-10"/>
            <path d="M29.63 20.82a8.82 8.82 0 1 0-14.83 6.43l1.65-1.75a6.41 6.41 0 1 1 8.47.24l1.65 1.75a8.8 8.8 0 0 0 3.06-6.67z" class="cls-11"/>
            <path d="M28 20.61a7.15 7.15 0 1 0-12 5.22l.41-.44a6.41 6.41 0 1 1 8.73.2l.41.43A7.14 7.14 0 0 0 28 20.61z" class="cls-12"/>
            <path d="M1.75 20.31a21.46 21.46 0 0 1 2-7.91" class="cls-13"/>
            <circle cx="4.24" cy="11.17" r=".39" class="cls-14"/>
            <path d="M26.09 7.25a13.06 13.06 0 0 1 5 3.31" class="cls-13"/>
            <circle cx="31.81" cy="11.37" r=".29" class="cls-14"/>
            <path d="M14 18.46A6.86 6.86 0 0 1 16.41 15" class="cls-13"/>
            <circle cx="17.27" cy="14.41" r=".3" class="cls-14"/>
            <path d="M13.37 30.79a2.57 2.57 0 0 0-4.31-1.9 2.57 2.57 0 0 0-4.71 1.44 2.57 2.57 0 1 0-.49 5.11A2.57 2.57 0 1 0 8.78 37a2.56 2.56 0 0 0 4-1.08 2.57 2.57 0 1 0 .62-5.08z" class="cls-14"/>
            <path d="M3.51 35.13a2.55 2.55 0 0 1 .09-1.25 2.57 2.57 0 0 1-2.2-1.37 2.57 2.57 0 0 0 2.18 2.89 2.65 2.65 0 0 1-.07-.27zM13.46 34.34a2.56 2.56 0 0 1-1 0 2.57 2.57 0 0 1-4 1.08 2.57 2.57 0 0 1-4.73.48 2.54 2.54 0 0 0 0 .79 2.57 2.57 0 0 0 5 .27 2.56 2.56 0 0 0 4-1.08 2.57 2.57 0 0 0 2.8-3.72 2.57 2.57 0 0 1-2.07 2.18z" class="cls-15"/>
            <path d="M19.28 28.1a2 2 0 0 0 .13-.34 2 2 0 0 0-2.56-2.45 2 2 0 0 0-3.85-.53 2 2 0 1 0-2 3.48A2 2 0 1 0 14 31a2 2 0 0 0 3.19.55 2 2 0 1 0 2.13-3.42z" class="cls-14"/>
            <path d="M10.8 27.92a2 2 0 0 1 .48-.86 2 2 0 0 1-1.12-1.71 2 2 0 0 0 .6 2.79 2 2 0 0 1 .04-.22zM18.16 30.66a2 2 0 0 1-.69-.34 2 2 0 0 1-3.19-.55 2 2 0 0 1-3.54-1.23A2 2 0 0 0 14 31a2 2 0 0 0 3.19.55 2 2 0 0 0 3.23-1.72 2 2 0 0 1-2.26.83z" class="cls-15"/>
            <path d="M39.74 34.33a2.61 2.61 0 0 0 .16-.43 2.57 2.57 0 0 0-3.26-3.11 2.57 2.57 0 0 0-4.87-.68 2.57 2.57 0 1 0-2.6 4.42A2.57 2.57 0 1 0 33 38a2.57 2.57 0 0 0 4.05.7 2.57 2.57 0 1 0 2.71-4.35z" class="cls-14"/>
            <path d="M29 34.1a2.56 2.56 0 0 1 .6-1.09 2.57 2.57 0 0 1-1.42-2.17 2.57 2.57 0 0 0 .76 3.54 2.62 2.62 0 0 1 .06-.28zM38.32 37.59a2.56 2.56 0 0 1-.88-.43 2.56 2.56 0 0 1-4.05-.7 2.57 2.57 0 0 1-4.5-1.56 2.54 2.54 0 0 0-.32.72A2.57 2.57 0 0 0 33 38a2.57 2.57 0 0 0 4.05.7 2.57 2.57 0 0 0 4.11-2.19 2.57 2.57 0 0 1-2.84 1.08z" class="cls-15"/>
            <path d="M31.85 28.1a2 2 0 0 0 .13-.34 2 2 0 0 0-2.56-2.45 2 2 0 0 0-3.83-.54 2 2 0 1 0-2 3.48 2 2 0 1 0 3 2.71 2 2 0 0 0 3.19.55 2 2 0 1 0 2.13-3.42z" class="cls-14"/>
            <path d="M23.37 27.92a2 2 0 0 1 .48-.86 2 2 0 0 1-1.12-1.71 2 2 0 0 0-.25.58 2 2 0 0 0 .85 2.21 2.13 2.13 0 0 1 .04-.22zM30.73 30.66a2 2 0 0 1-.69-.34 2 2 0 0 1-3.19-.55 2 2 0 0 1-3.54-1.23A2 2 0 0 0 26.53 31a2 2 0 0 0 3.19.55 2 2 0 0 0 3.17-1.1 2 2 0 0 0 .11-.65 2 2 0 0 1-2.27.86z" class="cls-15"/>
        </g>
    </g>
</svg>
