<svg xmlns="http://www.w3.org/2000/svg" viewBox="0 0 25.14 34.42">
    <defs>
        <style>
            .cls-1{fill:#182347}.cls-1,.cls-2,.cls-4{stroke:#fff}.cls-1,.cls-2,.cls-4,.cls-5{stroke-miterlimit:10}.cls-2{fill:#262727}.cls-3{fill:#fff}.cls-4,.cls-5{fill:none}.cls-4{stroke-width:.39px}.cls-5{stroke:#d6d6d6;stroke-width:.79px}
        </style>
    </defs>
    <g id="图层_2" data-name="图层 2">
        <g id="图层_1-2" data-name="图层 1">
            <path d="M7.93 29.28h9.28v4.64H7.93z" class="cls-1"/>
            <path d="M19.07 22.78c-1.78 1.1-1.86 3.47-1.86 5.57v.93H7.93v-.93c0-2.1-.11-4.52-1.86-5.57A12.4 12.4 0 0 1 .5 12.28 11.93 11.93 0 0 1 12.57.5a11.93 11.93 0 0 1 12.07 11.78 12.4 12.4 0 0 1-5.57 10.5z" class="cls-2"/>
            <path d="M14.43 20.58v8.7h-3.72v-8.7A5.55 5.55 0 0 1 7 15.35h3.34a2.23 2.23 0 1 0 4.46 0h3.34a5.55 5.55 0 0 1-3.71 5.23z" class="cls-3"/>
            <path d="M11.35 4.69a9.89 9.89 0 0 0-6.22 7.11" class="cls-4"/>
            <path d="M7.81 31.76l9.29.09" class="cls-5"/>
        </g>
    </g>
</svg>
