<svg xmlns="http://www.w3.org/2000/svg" viewBox="0 0 42.3 43.01">
    <defs>
        <style>
            .cls-1{fill:#182347}.cls-1,.cls-2,.cls-4{stroke:#fff}.cls-1,.cls-2,.cls-4,.cls-5{stroke-miterlimit:10}.cls-2{fill:#ac75a2}.cls-3{fill:#fff}.cls-4,.cls-5{fill:none}.cls-4{stroke-width:.39px}.cls-5{stroke:#d6d6d6;stroke-width:.77px}
        </style>
    </defs>
    <g id="图层_2" data-name="图层 2">
        <g id="图层_1-2" data-name="图层 1">
            <path d="M16.46 37.95h9.11v4.56h-9.11z" class="cls-1"/>
            <path d="M27.4 31.57C25.65 32.65 25.57 35 25.57 37v1h-9.11v-1c0-2.06-.11-4.44-1.82-5.47a12.17 12.17 0 0 1-5.47-10.3A11.71 11.71 0 0 1 21 9.7a11.71 11.71 0 0 1 11.86 11.57 12.17 12.17 0 0 1-5.46 10.3z" class="cls-2"/>
            <path d="M22.84 29.42V38H19.2v-8.58a5.45 5.45 0 0 1-3.64-5.13h3.28a2.19 2.19 0 1 0 4.37 0h3.28a5.45 5.45 0 0 1-3.65 5.13z" class="cls-3"/>
            <path d="M18.6 12.66a9.7 9.7 0 0 0-6.11 7" class="cls-4"/>
            <path d="M16.61 39.93l9.11.1" class="cls-5"/>
            <path d="M21.26 7.89c.17 0 .3-.09.3-.22.12-2.27.1-4.59.07-6.84V.27c0-.16-.14-.27-.33-.27s-.39.1-.39.29v.63c0 2.22 0 4.51.07 6.75a.26.26 0 0 0 .28.22zM10.09 3.49c1 1.92 2.12 3.91 3.3 5.77a.2.2 0 0 0 .17.1.24.24 0 0 0 .12 0 .32.32 0 0 0 .16-.39c-1-2-2.12-4-3.22-5.92l-.28-.49a.24.24 0 0 0-.34-.12c-.15.09-.31.32-.21.5zM8.78 14.32c-1.94-1-4-1.85-6-2.69l-.48-.2a.24.24 0 0 0-.32.15c-.07.16-.06.44.13.53l.56.25c1.93.87 3.92 1.76 5.92 2.5h.07a.21.21 0 0 0 .19-.14.33.33 0 0 0-.07-.4zM7.25 21.62c-2.16-.15-4.36-.14-6.49-.13H.24a.25.25 0 0 0-.24.28c0 .2.12.42.31.43h3.98c1.14 0 2 0 3-.07A.21.21 0 0 0 7.5 22a.32.32 0 0 0-.25-.38zM28.62 9.32a.24.24 0 0 0 .12 0 .2.2 0 0 0 .17-.1c1.18-1.86 2.26-3.85 3.31-5.77l.3-.54c.1-.18-.05-.41-.21-.5a.24.24 0 0 0-.35.08l-.27.51c-1.1 1.92-2.24 3.91-3.22 5.94a.32.32 0 0 0 .15.38zM40.17 12.12c.18-.08.2-.36.13-.53a.24.24 0 0 0-.32-.15l-.49.21c-2 .83-4 1.69-6 2.68a.33.33 0 0 0-.1.41.21.21 0 0 0 .19.14h.07c2-.73 4-1.63 5.92-2.49zM42.06 21.5h-.52c-2.13 0-4.33 0-6.49.13a.32.32 0 0 0-.24.33.21.21 0 0 0 .2.23c1 .05 2 .07 3 .07H42c.19 0 .31-.22.31-.43a.25.25 0 0 0-.25-.33z" class="cls-3"/>
        </g>
    </g>
</svg>
