<svg xmlns="http://www.w3.org/2000/svg" viewBox="0 0 42.75 43.2">
    <defs>
        <style>
            .cls-1{fill:#182347}.cls-1,.cls-2,.cls-4{stroke:#fff}.cls-1,.cls-2,.cls-4,.cls-5{stroke-miterlimit:10}.cls-2{fill:#c35549}.cls-3{fill:#fff}.cls-4,.cls-5{fill:none}.cls-4{stroke-width:.39px}.cls-5{stroke:#d6d6d6;stroke-width:.78px}
        </style>
    </defs>
    <g id="图层_2" data-name="图层 2">
        <g id="图层_1-2" data-name="图层 1">
            <path d="M16.77 38.1h9.21v4.6h-9.21z" class="cls-1"/>
            <path d="M27.82 31.65C26.05 32.74 26 35.1 26 37.18v.92h-9.23v-.92c0-2.08-.11-4.49-1.84-5.53A12.3 12.3 0 0 1 9.4 21.24a11.83 11.83 0 0 1 12-11.69 11.83 11.83 0 0 1 12 11.69 12.3 12.3 0 0 1-5.58 10.41z" class="cls-2"/>
            <path d="M23.21 29.47v8.63h-3.68v-8.63a5.51 5.51 0 0 1-3.68-5.19h3.32a2.21 2.21 0 1 0 4.42 0h3.31a5.51 5.51 0 0 1-3.69 5.19z" class="cls-3"/>
            <path d="M18.28 12.53a9.81 9.81 0 0 0-6.17 7" class="cls-4"/>
            <path d="M16.75 40.1l9.21.09" class="cls-5"/>
            <path d="M21.48 8c.17 0 .3-.09.31-.22.12-2.29.1-4.64.08-6.91v-.6c0-.16-.14-.27-.34-.27s-.4.1-.4.29v.64c0 2.24 0 4.56.07 6.82a.26.26 0 0 0 .28.25zM10.2 3.52c1.05 1.94 2.14 3.95 3.34 5.83a.2.2 0 0 0 .17.1.25.25 0 0 0 .12 0A.33.33 0 0 0 14 9c-1-2-2.14-4-3.25-6l-.28-.49a.24.24 0 0 0-.35-.08c-.16.09-.31.32-.21.5zM8.88 14.47c-2-1-4-1.87-6-2.72l-.49-.21a.25.25 0 0 0-.33.15c-.07.17-.06.45.13.53l.57.26c1.95.88 4 1.78 6 2.52h.07a.22.22 0 0 0 .2-.14.33.33 0 0 0-.15-.39zM7.33 21.85c-2.18-.15-4.41-.14-6.56-.13H.25A.25.25 0 0 0 0 22c0 .21.12.43.31.43h4.03c1.15 0 2 0 3-.07a.22.22 0 0 0 .2-.23.32.32 0 0 0-.21-.28zM28.93 9.42a.25.25 0 0 0 .12 0 .2.2 0 0 0 .17-.1c1.2-1.88 2.29-3.89 3.34-5.84l.3-.55c.1-.18-.06-.42-.21-.5a.24.24 0 0 0-.35.08L32 3c-1.09 2-2.24 4-3.24 6a.33.33 0 0 0 .17.42zM40.6 12.24c.19-.08.2-.37.13-.53a.24.24 0 0 0-.33-.16l-.5.21c-2 .84-4.06 1.71-6 2.71a.33.33 0 0 0-.1.41.22.22 0 0 0 .2.12c2-.74 4-1.64 6-2.52zM42.5 21.72H42c-2.15 0-4.38 0-6.56.13a.32.32 0 0 0-.25.34.22.22 0 0 0 .2.23c1 .05 2 .07 3.06.07h4c.19 0 .31-.23.31-.43a.25.25 0 0 0-.26-.34z" class="cls-3"/>
        </g>
    </g>
</svg>
