<svg xmlns="http://www.w3.org/2000/svg" viewBox="0 0 42.4 42.85">
    <defs>
        <style>
            .cls-1{fill:#182347}.cls-1,.cls-2,.cls-4{stroke:#fff}.cls-1,.cls-2,.cls-4,.cls-5{stroke-miterlimit:10}.cls-2{fill:#505398}.cls-3{fill:#fff}.cls-4,.cls-5{fill:none}.cls-4{stroke-width:.39px}.cls-5{stroke:#d6d6d6;stroke-width:.77px}
        </style>
    </defs>
    <g id="图层_2" data-name="图层 2">
        <g id="图层_1-2" data-name="图层 1">
            <path d="M16.14 37.79h9.13v4.57h-9.13z" class="cls-1"/>
            <path d="M27.1 31.39c-1.75 1.08-1.83 3.42-1.83 5.48v.91h-9.13v-.91c0-2.06-.11-4.45-1.83-5.48a12.2 12.2 0 0 1-5.48-10.33A11.74 11.74 0 0 1 20.71 9.47a11.74 11.74 0 0 1 11.87 11.59 12.2 12.2 0 0 1-5.48 10.33z" class="cls-2"/>
            <path d="M22.54 29.23v8.56h-3.66v-8.56a5.46 5.46 0 0 1-3.65-5.15h3.29a2.19 2.19 0 1 0 4.38 0h3.29a5.46 5.46 0 0 1-3.65 5.15z" class="cls-3"/>
            <path d="M18.61 12.43a9.73 9.73 0 0 0-6.12 7" class="cls-4"/>
            <path d="M16.13 39.77l9.13.1" class="cls-5"/>
            <path d="M21.31 7.91c.17 0 .3-.09.3-.22.12-2.27.1-4.6.07-6.85V.27c0-.16-.14-.27-.34-.27S21 .1 21 .29v.63c0 2.22 0 4.52.07 6.76a.26.26 0 0 0 .24.23zM10.11 3.49c1 1.93 2.13 3.92 3.31 5.78a.2.2 0 0 0 .17.1.24.24 0 0 0 .12 0 .33.33 0 0 0 .17-.37c-1-2-2.12-4-3.22-5.94l-.28-.49a.24.24 0 0 0-.38-.13c-.15.09-.31.32-.21.5zM8.8 14.36c-1.95-1-4-1.86-6-2.69l-.48-.2a.24.24 0 0 0-.32.15c-.07.16-.06.45.13.53l.56.25c1.93.87 3.93 1.77 5.94 2.5h.07a.22.22 0 0 0 .19-.14.33.33 0 0 0-.09-.4zM7.27 21.67c-2.16-.15-4.37-.14-6.51-.13H.24a.25.25 0 0 0-.24.28c0 .2.12.42.31.43H4.3c1.14 0 2 0 3-.07a.21.21 0 0 0 .2-.23.32.32 0 0 0-.23-.28zM28.69 9.35a.24.24 0 0 0 .12 0 .2.2 0 0 0 .17-.1c1.19-1.87 2.27-3.86 3.32-5.79l.3-.55c.1-.18-.05-.41-.21-.5a.24.24 0 0 0-.35.08l-.28.51c-1.1 1.93-2.24 3.92-3.23 6a.32.32 0 0 0 .16.35zM40.27 12.15c.18-.08.2-.36.13-.53a.24.24 0 0 0-.32-.15l-.5.21c-2 .84-4 1.7-6 2.69a.33.33 0 0 0-.1.41.22.22 0 0 0 .2.14h.07c2-.73 4-1.63 5.93-2.5zM42.16 21.55h-.52c-2.13 0-4.34 0-6.5.13a.32.32 0 0 0-.25.33.21.21 0 0 0 .2.23c1 .05 2 .07 3 .07h3.97c.19 0 .31-.22.31-.43a.25.25 0 0 0-.21-.33z" class="cls-3"/>
        </g>
    </g>
</svg>
