<svg xmlns="http://www.w3.org/2000/svg" viewBox="0 0 52.15 41.61">
    <defs>
        <style>
            .cls-1,.cls-10,.cls-9{fill:none}.cls-2{fill:#273041}.cls-3{fill:#323a49}.cls-4{fill:#cb4e4d}.cls-5{fill:#77c0eb}.cls-6{fill:#d2504e}.cls-7{fill:#f3bf6f}.cls-8{fill:#45b89d}.cls-10,.cls-9{stroke:#323a49;stroke-linecap:round;stroke-linejoin:round}.cls-9{stroke-width:1.28px}.cls-10{stroke-width:.99px}
        </style>
    </defs>
    <g id="图层_2" data-name="图层 2">
        <g id="图层_1-2" data-name="图层 1">
            <g id="_7ce30a26-bea8-41c3-b2b8-a93ac31f813c" data-name="7ce30a26-bea8-41c3-b2b8-a93ac31f813c">
                <path d="M17.81 38.81a16.39 16.39 0 0 1-2.31-1.59 20.44 20.44 0 0 1-1.73-1.62 11 11 0 0 1-1-1.2 15.36 15.36 0 0 1-1.43-2.27 14.51 14.51 0 0 1-1-2.48A15.56 15.56 0 0 1 9.68 27a17.24 17.24 0 0 1-.19-2.53 22.84 22.84 0 0 1 .22-2.63A16.5 16.5 0 0 1 10.88 18a14.64 14.64 0 0 1 1.24-2.33 16.34 16.34 0 0 1 9.76-7A15.53 15.53 0 0 1 28 8.3a15.92 15.92 0 0 1 2.7.64 16.19 16.19 0 0 1 2.9 1.3 12.72 12.72 0 0 0-7.86-1.52 12.72 12.72 0 0 1 7.86 1.52 20.37 20.37 0 0 1 1.85 1.24 16.06 16.06 0 0 1 2.14 1.93 15.72 15.72 0 0 1 1.65 2.14c.24.36.53.85.73 1.24s.39.79.55 1.13a16.49 16.49 0 0 1 1.17 3.92c0 .39.13.91.17 1.3s.06 1 .06 1.44a20.22 20.22 0 0 1-.22 2.64 12.87 12.87 0 0 1-.4 1.78 16.05 16.05 0 0 1-.91 2.48 15.47 15.47 0 0 1-1.3 2.29 15.72 15.72 0 0 1-1.63 2 16.29 16.29 0 0 1-8.27 4.76 15.91 15.91 0 0 1-11.38-1.72z" class="cls-1"/>
                <path d="M30.91 9l.21.07zM41.87 25.34v-.77a8.1 8.1 0 0 0 0-.83v-.94c0-.24 0-.49-.09-.74l.06.54-.1-.76c-.09-.53-.19-1-.29-1.36-.13-.51-.26-.9-.36-1.2s-.14-.41-.21-.57v.11a15.87 15.87 0 0 0-3.29-5.34l-.59-.69-.19-.19a16.59 16.59 0 0 0-2.51-1.92l.2.12-.32-.2-.28-.17-.29-.17h-.08l-.29-.16L33 10l-.69-.34-.83-.35-.62-.31h-.19L30 8.75l-.58-.14h-.23l-.29-.07h-.18a15.16 15.16 0 0 0-4.84-.19h-.69l-.44.08H22.46l-.3.06h-.08l.26-.06-.27.06h-.13c-.49.12-.88.24-1.24.37l-.22.14-.37.13-.63.29a10.79 10.79 0 0 0-1.11.53l-.53.28-.11.06-.3.19a16.16 16.16 0 0 0-1.77 1.24l-.07.05-.15.13c-.22.19-.44.37-.65.57l-.3.3c-.21.2-.41.41-.6.62l-.14.14-.13.16q-.27.31-.52.62l-.12.14-.18.24a8.75 8.75 0 0 0-.58.83l-.06.06a15.5 15.5 0 0 0-2.35 6.06v.19c-.06.41-.11.87-.15 1.24l-.1 1.43c0 .76.1 1.77.19 2.53L10 28.3c.1.41.26 1 .38 1.36l.1.26q.13.37.27.73l.07.19c.06.14.13.3.21.46l.23.48.16.34.24.41.13.24.24.41c.23.36.57.83.83 1.19l.77.95c.31.34.74.77 1.06 1.1l.89.78c.41.32 1 .72 1.39 1l.36.22.56.35a15.31 15.31 0 0 0 2 1h.33l.59.21.66.2.59.16.53.12.47.09.44.07.41.05h4.44c.31-.05.59-.11.83-.17h.1c.48-.11.89-.23 1.24-.35h.15L31 40l.58-.22a12.63 12.63 0 0 0 1.32-.6l.36-.18.15-.08.83-.48.1-.06.71-.49.34-.25.19-.14.86-.72a13.15 13.15 0 0 0 1-1l.09-.09.79-.9.31-.41.2-.29.22-.31.11-.15.06-.1.11-.16-.09.12.57-.92c.26-.46.46-.86.62-1.2v-.07c.19-.41.32-.75.45-1.07l.09-.25c.11-.29.17-.49.24-.72a14.35 14.35 0 0 0 .41-1.58v-.1a1.51 1.51 0 0 1 0-.23 1.33 1.33 0 0 1 0-.21V27c.06-.36.1-.63.12-.94v-.62-.83zm-6.68-14a14.27 14.27 0 0 1 2 1.72 18.27 18.27 0 0 0-2-1.72z" class="cls-2"/>
                <path d="M28.75 8.61l.3.14a13.48 13.48 0 0 0-3.31 0 11.17 11.17 0 0 1 3-.14" class="cls-3"/>
                <path d="M28 8.38a5.2 5.2 0 0 1 .66.19 10.51 10.51 0 0 0-2.92.17A6.52 6.52 0 0 1 28 8.39" class="cls-3"/>
                <path d="M27.07 8.23c.29 0 .55.07.81.12a5.89 5.89 0 0 0-2.14.38 2.72 2.72 0 0 1 1.33-.5" class="cls-3"/>
                <path d="M26 8.17a8.94 8.94 0 0 1 .89.05 2.27 2.27 0 0 0-1.19.51c.1-.34.2-.52.29-.57" class="cls-3"/>
                <path d="M24.94 8.2h.92a1.55 1.55 0 0 0-.14.57 1.38 1.38 0 0 0-.78-.55" class="cls-3"/>
                <path d="M23.91 8.3h.2l.7-.07a1.65 1.65 0 0 1 .94.54 4.48 4.48 0 0 0-1.83-.44" class="cls-3"/>
                <path d="M23 8.48a6.53 6.53 0 0 1 .73-.17 5.09 5.09 0 0 1 2 .41A9 9 0 0 0 23 8.48" class="cls-3"/>
                <path d="M22.42 8.73a2.85 2.85 0 0 1 .51-.21 9.7 9.7 0 0 1 2.8.22 13.4 13.4 0 0 0-3.31 0" class="cls-3"/>
                <path d="M22.09 9a.83.83 0 0 1 .27-.24 13.93 13.93 0 0 1 3.37 0 16.36 16.36 0 0 0-3.64.24" class="cls-3"/>
                <path d="M22 9.3a.3.3 0 0 1 0-.3 16.62 16.62 0 0 1 3.67-.31A17.11 17.11 0 0 0 22 9.3" class="cls-3"/>
                <path d="M22.35 9.6a.79.79 0 0 1-.27-.25 17.1 17.1 0 0 1 3.65-.61 15.4 15.4 0 0 0-3.38.86" class="cls-3"/>
                <path d="M23 9.85a2.9 2.9 0 0 1-.53-.22 15 15 0 0 1 3.31-.91A11.9 11.9 0 0 0 23 9.85" class="cls-3"/>
                <path d="M23.78 10.06a6.65 6.65 0 0 1-.72-.16 11.35 11.35 0 0 1 2.67-1.16 8.27 8.27 0 0 0-2 1.32" class="cls-3"/>
                <path d="M24.75 10.18c-.29 0-.58-.06-.83-.1a7.83 7.83 0 0 1 1.82-1.34 6.62 6.62 0 0 0-1 1.44" class="cls-3"/>
                <path d="M25.81 10.22h-.91a6.88 6.88 0 0 1 .83-1.45c0 .37.05.87.07 1.48M26.88 10.17h-.92c-.07-.61-.15-1.11-.23-1.48a6.57 6.57 0 0 1 1.15 1.43" class="cls-3"/>
                <path d="M27.89 10l-.53.09h-.32a6.69 6.69 0 0 0-1.3-1.42A9 9 0 0 1 27.89 10" class="cls-3"/>
                <path d="M28.67 9.82A5.08 5.08 0 0 1 28 10a9.55 9.55 0 0 0-2.28-1.27 12.79 12.79 0 0 1 2.94 1.08" class="cls-3"/>
                <path d="M29.19 9.56a1.94 1.94 0 0 1-.41.22 13.31 13.31 0 0 0-3-1 15.88 15.88 0 0 1 3.45.83" class="cls-3"/>
                <path d="M29.42 9.27a.51.51 0 0 1-.18.25 16.27 16.27 0 0 0-3.5-.79 17.09 17.09 0 0 1 3.69.54" class="cls-3"/>
                <path d="M29.34 9a.34.34 0 0 1 .09.26 17.15 17.15 0 0 0-3.69-.5 14.63 14.63 0 0 1 3.6.24" class="cls-3"/>
                <path d="M29.05 8.74a1.12 1.12 0 0 1 .25.19 15.66 15.66 0 0 0-3.57-.19 13.48 13.48 0 0 1 3.31 0M31.53 9.27l.85.36.36.18a12.37 12.37 0 0 0-3.14-1l-.35-.17a10.12 10.12 0 0 1 2.28.6" class="cls-3"/>
                <path d="M29 8.51l1 .24c.29.08.77.24 1.1.36a9.48 9.48 0 0 0-2-.5 6.07 6.07 0 0 0-.77-.22 5.66 5.66 0 0 1 .67.1" class="cls-3"/>
                <path d="M27.43 8.24l.58.07.79.14a5.05 5.05 0 0 0-.55-.08c-.29-.06-.61-.11-.94-.14h.12M26.08 8.15H27.19h-.08c-.34 0-.69-.05-1-.06M24.8 8.2h1.1-1.08M23.21 8.35l.41-.06.83-.09h.22a6.37 6.37 0 0 0-.83.08h-.63M20.92 8.9a17.74 17.74 0 0 1 2-.49 4.28 4.28 0 0 1 .53-.07 7.62 7.62 0 0 0-.85.19 8.06 8.06 0 0 0-1.65.38" class="cls-3"/>
                <path d="M18.74 9.77l.32-.16.41-.18c.33-.13.77-.3 1.1-.41a8.69 8.69 0 0 1 1.88-.46 3.31 3.31 0 0 0-.59.25 12.29 12.29 0 0 0-3.13 1" class="cls-3"/>
                <path d="M18 10.36a1.75 1.75 0 0 1 .57-.51 12.83 12.83 0 0 1 3.19-1 1 1 0 0 0-.31.28A15.54 15.54 0 0 0 18 10.37" class="cls-3"/>
                <path d="M18 11a.63.63 0 0 1 0-.54 15.88 15.88 0 0 1 3.47-1.27.35.35 0 0 0 0 .3A17.13 17.13 0 0 0 18 11" class="cls-3"/>
                <path d="M18.59 11.62a1.65 1.65 0 0 1-.57-.53 17.2 17.2 0 0 1 3.45-1.56.91.91 0 0 0 .31.3 16.86 16.86 0 0 0-3.2 1.8" class="cls-3"/>
                <path d="M19.86 12.18a6.12 6.12 0 0 1-1.13-.47 16.69 16.69 0 0 1 3.13-1.83 3.38 3.38 0 0 0 .62.26 15.35 15.35 0 0 0-2.63 2" class="cls-4"/>
                <path d="M21.6 12.59a14.07 14.07 0 0 1-1.51-.34 15.13 15.13 0 0 1 2.53-2.07 7.76 7.76 0 0 0 .83.19 14.35 14.35 0 0 0-1.85 2.23M23.66 12.84c-.62 0-1.22-.12-1.78-.21a14.42 14.42 0 0 1 1.73-2.25c.31 0 .64.09 1 .12a18.76 18.76 0 0 0-.93 2.34M25.89 12.93c-.65 0-1.3 0-1.92-.06a21.07 21.07 0 0 1 .79-2.35h1.06c0 .68 0 1.48.07 2.38" class="cls-3"/>
                <path d="M28.17 12.82c-.64.06-1.3.09-1.95.1-.07-.89-.14-1.69-.22-2.37.36 0 .72 0 1.08-.05a17 17 0 0 1 1.09 2.33" class="cls-5"/>
                <path d="M30.29 12.52q-.53.1-1.12.19l-.68.08a15.92 15.92 0 0 0-1.24-2.32h.38l.62-.1a14.4 14.4 0 0 1 2 2.2M31.94 12.08a10.76 10.76 0 0 1-1.38.38 14.51 14.51 0 0 0-2.16-2.17 5.94 5.94 0 0 0 .76-.22 15.72 15.72 0 0 1 2.78 2" class="cls-3"/>
                <path d="M33 11.54a4.1 4.1 0 0 1-.9.47 16 16 0 0 0-2.86-2 2.27 2.27 0 0 0 .5-.26A17 17 0 0 1 33 11.54" class="cls-3"/>
                <path d="M33.52 10.93a1.08 1.08 0 0 1-.38.53 17.13 17.13 0 0 0-3.31-1.72.6.6 0 0 0 .17-.29 17 17 0 0 1 3.48 1.49" class="cls-3"/>
                <path d="M33.35 10.29a.72.72 0 0 1 .18.54A16.86 16.86 0 0 0 30 9.39a.41.41 0 0 0-.1-.3 15.13 15.13 0 0 1 3.41 1.2" class="cls-3"/>
                <path d="M32.74 9.81a2.37 2.37 0 0 1 .53.41A14.7 14.7 0 0 0 29.91 9a1.31 1.31 0 0 0-.29-.22 12.37 12.37 0 0 1 3.14 1M33.6 10.26l-.38-.21-.16-.05.53.29M17.82 10.26l.6-.32-.16.08-.44.24M14.6 12.71a1.88 1.88 0 0 1 .34-.38 16 16 0 0 1 2-1.51l.33-.21a9 9 0 0 1 .89-.5 1.87 1.87 0 0 0-.61.54 15.12 15.12 0 0 0-2.9 2.07" class="cls-3"/>
                <path d="M14.51 13.61a.91.91 0 0 1 0-.78 15.47 15.47 0 0 1 2.9-2.09.67.67 0 0 0 0 .58 17.13 17.13 0 0 0-2.92 2.3M15.41 14.52a2.4 2.4 0 0 1-.83-.77 17.34 17.34 0 0 1 2.9-2.33 1.77 1.77 0 0 0 .61.58 18.28 18.28 0 0 0-2.69 2.53M17.24 15.33a8.85 8.85 0 0 1-1.63-.68 18.4 18.4 0 0 1 2.64-2.57 6.55 6.55 0 0 0 1.2.5 19.28 19.28 0 0 0-2.21 2.74M19.76 15.92a20.31 20.31 0 0 1-2.19-.5 19.5 19.5 0 0 1 2.13-2.77 15 15 0 0 0 1.62.37 22.28 22.28 0 0 0-1.56 2.9M22.73 16.28c-.89-.07-1.76-.17-2.57-.3a23.17 23.17 0 0 1 1.45-2.9c.6.1 1.24.17 1.9.22-.29.91-.55 1.92-.79 3" class="cls-3"/>
                <path d="M26 16.4c-.94 0-1.87 0-2.78-.09.2-1.08.41-2.07.67-3 .67 0 1.36.07 2.07.06 0 .92 0 1.94.06 3" class="cls-6"/>
                <path d="M29.25 16.25c-.93.08-1.87.13-2.81.14-.05-1.08-.12-2.1-.18-3 .7 0 1.4 0 2.07-.11.33.91.64 1.91.91 3M32.32 15.83q-.76.15-1.62.26l-1 .12a29.14 29.14 0 0 0-1-3l.74-.07q.64-.09 1.2-.2a21.17 21.17 0 0 1 1.71 2.88" class="cls-3"/>
                <path d="M34.7 15.19a15.53 15.53 0 0 1-2 .56 20.64 20.64 0 0 0-1.81-2.85 11.49 11.49 0 0 0 1.47-.41 19 19 0 0 1 2.33 2.71" class="cls-7"/>
                <path d="M36.28 14.4a5.92 5.92 0 0 1-1.3.68 18.83 18.83 0 0 0-2.4-2.68 4.39 4.39 0 0 0 1-.5 18.12 18.12 0 0 1 2.74 2.48M37 13.52a1.56 1.56 0 0 1-.55.76 18 18 0 0 0-2.78-2.48 1.15 1.15 0 0 0 .41-.56A16.89 16.89 0 0 1 37 13.5" class="cls-3"/>
                <path d="M36.74 12.6a1 1 0 0 1 .26.79 16.65 16.65 0 0 0-2.93-2.24.77.77 0 0 0-.19-.58 14.72 14.72 0 0 1 2.86 2" class="cls-3"/>
                <path d="M33.6 10.26a16.57 16.57 0 0 1 2.9 2.11l.12.11a14.33 14.33 0 0 0-2.83-2 2.53 2.53 0 0 0-.57-.41l.37.2M12.05 15.74c.26-.38.6-.89.88-1.24.43-.51 1-1.22 1.52-1.71a1.85 1.85 0 0 0-.27.33 14.77 14.77 0 0 0-2.13 2.63" class="cls-3"/>
                <path d="M11.85 17a1.13 1.13 0 0 1 0-1 15.08 15.08 0 0 1 2.22-2.78.94.94 0 0 0 0 .83A16.69 16.69 0 0 0 11.85 17" class="cls-3"/>
                <path d="M12.95 18.13a3 3 0 0 1-1-1 17 17 0 0 1 2.21-3A2.48 2.48 0 0 0 15 15a18.79 18.79 0 0 0-2.07 3.13" class="cls-8"/>
                <path d="M15.23 19.11a11 11 0 0 1-2-.83 19.15 19.15 0 0 1 2-3.14 9.19 9.19 0 0 0 1.69.7 22 22 0 0 0-1.68 3.28" class="cls-3"/>
                <path d="M18.32 19.85a25.12 25.12 0 0 1-2.71-.62 22.66 22.66 0 0 1 1.62-3.31 21.1 21.1 0 0 0 2.28.55 29.06 29.06 0 0 0-1.2 3.38" class="cls-4"/>
                <path d="M22 20.3c-1.11-.09-2.18-.21-3.18-.37a30.82 30.82 0 0 1 1.11-3.41c.83.13 1.74.24 2.67.31-.23 1.1-.41 2.26-.6 3.47" class="cls-7"/>
                <path d="M26 20.45c-1.16 0-2.32 0-3.44-.11.14-1.21.31-2.37.51-3.48C24 16.93 25 17 26 17v3.49" class="cls-3"/>
                <path d="M30.07 20.26c-1.15.1-2.32.16-3.48.18 0-1.21-.08-2.38-.14-3.49 1 0 2-.07 2.93-.15.26 1.1.5 2.25.69 3.46" class="cls-8"/>
                <path d="M33.87 19.73q-.94.19-2 .33l-1.22.14c-.22-1.2-.48-2.36-.78-3.45l1-.12q.9-.12 1.68-.28a26.75 26.75 0 0 1 1.3 3.38M36.81 19a19.21 19.21 0 0 1-2.48.69A25.56 25.56 0 0 0 33 16.28a16.14 16.14 0 0 0 2-.57A21.07 21.07 0 0 1 36.81 19" class="cls-3"/>
                <path d="M38.77 18a7.33 7.33 0 0 1-1.61.83 20.58 20.58 0 0 0-1.83-3.23 6.16 6.16 0 0 0 1.35-.71A18.36 18.36 0 0 1 38.75 18" class="cls-6"/>
                <path d="M39.64 16.88a1.93 1.93 0 0 1-.68.94 18.06 18.06 0 0 0-2.11-3.07 1.62 1.62 0 0 0 .57-.79 16.4 16.4 0 0 1 2.22 2.92M38.3 14.27l.22.27c.29.41.69 1 1 1.39a1.19 1.19 0 0 1 .19.78 16.14 16.14 0 0 0-2.23-2.9 1.08 1.08 0 0 0-.28-.83 14.55 14.55 0 0 1 1.14 1.24" class="cls-3"/>
                <path d="M37.33 13.16l-.33-.28.32.33M10.16 21a1.24 1.24 0 0 1-.06-.83l.3-1c.21-.53.49-1.24.73-1.76q.21-.41.44-.83a1.15 1.15 0 0 0 0 1A15.93 15.93 0 0 0 10.15 21" class="cls-3"/>
                <path d="M11.4 22.22a3.31 3.31 0 0 1-1.15-1.08 16.18 16.18 0 0 1 1.37-3.43 3 3 0 0 0 1 1 18.23 18.23 0 0 0-1.28 3.55M13.95 23.34a12.28 12.28 0 0 1-2.24-.94 18.7 18.7 0 0 1 1.24-3.56 11.17 11.17 0 0 0 2.07.86A22.6 22.6 0 0 0 14 23.34" class="cls-3"/>
                <path d="M17.43 24.16a28.17 28.17 0 0 1-3-.69 23.51 23.51 0 0 1 1-3.66 25.65 25.65 0 0 0 2.77.63 32 32 0 0 0-.74 3.72" class="cls-8"/>
                <path d="M21.56 24.67c-1.24-.1-2.44-.24-3.57-.41a34.34 34.34 0 0 1 .69-3.72c1 .16 2.12.29 3.25.38-.16 1.24-.29 2.48-.38 3.77" class="cls-5"/>
                <path d="M26 24.84c-1.31 0-2.6 0-3.86-.12.07-1.28.19-2.54.32-3.77 1.15.07 2.33.11 3.52.11v3.78" class="cls-3"/>
                <path d="M30.6 24.63c-1.29.12-2.6.18-3.91.2 0-1.28 0-2.55-.08-3.78 1.19 0 2.39-.08 3.56-.19.18 1.24.33 2.48.41 3.76" class="cls-6"/>
                <path d="M34.87 24q-1.05.21-2.25.37l-1.37.16c-.11-1.28-.28-2.54-.48-3.75l1.23-.12q1.09-.15 2.07-.34a29 29 0 0 1 .81 3.72" class="cls-5"/>
                <path d="M38.16 23.15a21.54 21.54 0 0 1-2.76.77 27.44 27.44 0 0 0-.85-3.7 19.63 19.63 0 0 0 2.52-.71 21.31 21.31 0 0 1 1.1 3.63" class="cls-8"/>
                <path d="M40.35 22.06a8.22 8.22 0 0 1-1.8.95 20.63 20.63 0 0 0-1.13-3.64 7.49 7.49 0 0 0 1.65-.86A17.7 17.7 0 0 1 40.36 22" class="cls-4"/>
                <path d="M41.32 20.84a2.16 2.16 0 0 1-.76 1.05 17.34 17.34 0 0 0-1.31-3.52 2 2 0 0 0 .7-1 15.7 15.7 0 0 1 1.38 3.42" class="cls-3"/>
                <path d="M40 16.77a15.72 15.72 0 0 1 1 2.44l.3 1a1.24 1.24 0 0 1 0 .48 15.49 15.49 0 0 0-1.3-3.45 1.2 1.2 0 0 0-.16-.74l.14.26M9.61 25.35a1.34 1.34 0 0 1-.11-.5v-.34a15.76 15.76 0 0 1 .24-2.75l.2-1a1.24 1.24 0 0 0 .07.79A15.53 15.53 0 0 0 9.59 25v.31" class="cls-3"/>
                <path d="M10.88 26.65a3.44 3.44 0 0 1-1.19-1.11v-.31a15.68 15.68 0 0 1 .41-3.47 3.36 3.36 0 0 0 1.16 1.09 17.28 17.28 0 0 0-.38 3.49v.31" class="cls-3"/>
                <path d="M13.53 27.8a12.7 12.7 0 0 1-2.33-1v-.3a17.69 17.69 0 0 1 .36-3.5 12.41 12.41 0 0 0 2.28.95 21.4 21.4 0 0 0-.3 3.53v.31" class="cls-5"/>
                <path d="M17.14 28.66a29.15 29.15 0 0 1-3.14-.72v-.31a22.29 22.29 0 0 1 .29-3.53 28.44 28.44 0 0 0 3.07.7 30.77 30.77 0 0 0-.22 3.55v.31" class="cls-3"/>
                <path d="M21.4 29.18c-1.29-.1-2.52-.24-3.69-.41v-.31a33 33 0 0 1 .2-3.56c1.13.18 2.35.32 3.6.41-.07 1.18-.11 2.37-.11 3.56v.31" class="cls-4"/>
                <path d="M26 29.35c-1.35 0-2.69 0-4-.12v-.31c0-1.19 0-2.38.1-3.56 1.27.08 2.58.12 3.9.12v3.88" class="cls-3"/>
                <path d="M30.76 29.14c-1.33.12-2.69.19-4 .21v-3.88c1.32 0 2.64-.09 3.94-.2.08 1.18.12 2.37.12 3.55v.31" class="cls-7"/>
                <path d="M35.16 28.52q-1.09.22-2.33.38l-1.41.17v-.31c0-1.19 0-2.37-.13-3.55l1.38-.21q1.21-.16 2.27-.37a27.76 27.76 0 0 1 .22 3.54v.31" class="cls-4"/>
                <path d="M38.6 27.6a22.29 22.29 0 0 1-2.9.8v-.31a26.18 26.18 0 0 0-.24-3.54 21.75 21.75 0 0 0 2.79-.78 20.15 20.15 0 0 1 .31 3.52v.31M40.85 26.48a8.51 8.51 0 0 1-1.87 1v-.31a19.49 19.49 0 0 0-.31-3.52 8.3 8.3 0 0 0 1.82-.95 16.82 16.82 0 0 1 .36 3.49v.31M41.86 25.21a2.24 2.24 0 0 1-.78 1.09V26a16.55 16.55 0 0 0-.37-3.49 2.19 2.19 0 0 0 .78-1.06 15.41 15.41 0 0 1 .38 3.46v.31" class="cls-3"/>
                <path d="M41.68 21.82a15.92 15.92 0 0 1 .22 2.75v.14a15.31 15.31 0 0 0-.39-3.45 1.24 1.24 0 0 0 0-.41l.19 1M10.31 29.64v-.12l-.34-1.21a15.84 15.84 0 0 1-.41-2.77 1.35 1.35 0 0 0 .12.45 15 15 0 0 0 .67 3.66" class="cls-3"/>
                <path d="M11.54 30.89a3.31 3.31 0 0 1-1.13-1.06 15 15 0 0 1-.67-3.65 3.43 3.43 0 0 0 1.19 1.11 15.5 15.5 0 0 0 .62 3.6" class="cls-3"/>
                <path d="M14.06 32a12.14 12.14 0 0 1-2.23-.93 15.7 15.7 0 0 1-.61-3.6 12.68 12.68 0 0 0 2.33 1 17.84 17.84 0 0 0 .51 3.53" class="cls-6"/>
                <path d="M17.5 32.81a27.86 27.86 0 0 1-3-.68 18.41 18.41 0 0 1-.5-3.55 29.1 29.1 0 0 0 3.14.72 24.17 24.17 0 0 0 .36 3.52M21.58 33.31c-1.24-.1-2.41-.24-3.53-.41a25.77 25.77 0 0 1-.33-3.51c1.16.19 2.4.33 3.68.41 0 1.24.08 2.42.17 3.49" class="cls-3"/>
                <path d="M26 33.47c-1.29 0-2.57 0-3.82-.12a60.03 60.03 0 0 1-.15-3.49c1.3.09 2.64.13 4 .12v3.49" class="cls-8"/>
                <path d="M30.53 33.26c-1.27.12-2.57.18-3.86.2v-3.49c1.35 0 2.71-.09 4-.21 0 1.24-.1 2.42-.22 3.5" class="cls-3"/>
                <path d="M34.74 32.68q-1 .21-2.23.36l-1.35.16c.13-1.08.22-2.25.25-3.5l1.41-.17q1.24-.17 2.33-.38a22.08 22.08 0 0 1-.41 3.52" class="cls-5"/>
                <path d="M38 31.8a21.31 21.31 0 0 1-2.71.77A21 21 0 0 0 35.7 29a22.25 22.25 0 0 0 2.85-.8 17.06 17.06 0 0 1-.55 3.6" class="cls-8"/>
                <path d="M40.17 30.72a8.13 8.13 0 0 1-1.78.94 16.68 16.68 0 0 0 .61-3.57 8.49 8.49 0 0 0 1.87-1 15.31 15.31 0 0 1-.65 3.61" class="cls-3"/>
                <path d="M41.35 28.8l-.23.77a2.21 2.21 0 0 1-.74 1 15.2 15.2 0 0 0 .62-3.65 2.24 2.24 0 0 0 .79-1.09 15.11 15.11 0 0 1-.48 3M41.79 26.5q0-.41.07-.83v-.07l-.08.9M10.78 30.9l-.31-.71v.06q.12.35.27.69" class="cls-3"/>
                <path d="M13.21 34.52a3.1 3.1 0 0 1-.94-.83l-.3-.46-.31-.52a14.74 14.74 0 0 1-1.07-2.31 3.25 3.25 0 0 0 1.11 1 14 14 0 0 0 1.49 3.07M15.43 35.5a10.7 10.7 0 0 1-2-.83A13.88 13.88 0 0 1 12 31.62a12 12 0 0 0 2.21.92 14 14 0 0 0 1.22 3" class="cls-3"/>
                <path d="M18.47 36.21a24.55 24.55 0 0 1-2.65-.6 14.07 14.07 0 0 1-1.18-2.94 27.51 27.51 0 0 0 3 .67 16.23 16.23 0 0 0 .86 2.87" class="cls-7"/>
                <path d="M22 36.65c-1.08-.08-2.13-.21-3.11-.36a17 17 0 0 1-.79-2.85c1.1.17 2.27.31 3.48.41a27.72 27.72 0 0 0 .42 2.82" class="cls-6"/>
                <path d="M26 36.8c-1.14 0-2.27 0-3.36-.1-.15-.83-.27-1.77-.36-2.81 1.21.11 2.45.11 3.72.11v2.8" class="cls-4"/>
                <path d="M29.95 36.62c-1.12.1-2.26.16-3.41.18 0-.83.08-1.77.11-2.8 1.28 0 2.56-.09 3.81-.2a24 24 0 0 1-.52 2.82" class="cls-3"/>
                <path d="M33.66 36.1q-.91.18-2 .32l-1.19.14a21.68 21.68 0 0 0 .59-2.83l1.34-.16q1.17-.16 2.2-.36a15.34 15.34 0 0 1-1 2.9" class="cls-4"/>
                <path d="M36.53 35.33a18.78 18.78 0 0 1-2.41.67 14.92 14.92 0 0 0 1-2.9 21 21 0 0 0 2.7-.76 13.82 13.82 0 0 1-1.31 3" class="cls-3"/>
                <path d="M38.44 34.37a7.17 7.17 0 0 1-1.57.83 13.79 13.79 0 0 0 1.35-3 8 8 0 0 0 1.78-.93 14.07 14.07 0 0 1-1.54 3.09" class="cls-5"/>
                <path d="M40.88 30.27a15.61 15.61 0 0 1-1.13 2.41c-.2.32-.45.75-.66 1.06a2.46 2.46 0 0 1-.46.5 14.19 14.19 0 0 0 1.56-3.11 2.25 2.25 0 0 0 .71-.91v.06M15.76 37.41a3.46 3.46 0 0 1-.38-.27 15.9 15.9 0 0 1-1.83-1.79c-.27-.34-.65-.78-.91-1.13a3.15 3.15 0 0 0 .87.76 13.07 13.07 0 0 0 2.24 2.43" class="cls-3"/>
                <path d="M17.53 38.18a8.51 8.51 0 0 1-1.53-.65 12.73 12.73 0 0 1-2.2-2.4 10.43 10.43 0 0 0 1.92.79 10.87 10.87 0 0 0 1.84 2.25M19.95 38.76a19.52 19.52 0 0 1-2.11-.48A10.61 10.61 0 0 1 16.07 36a23.93 23.93 0 0 0 2.58.59 9.64 9.64 0 0 0 1.29 2.13" class="cls-3"/>
                <path d="M22.8 39.11c-.86-.07-1.69-.17-2.48-.29a9.64 9.64 0 0 1-1.2-2.11c1 .15 2 .27 3 .35a12.27 12.27 0 0 0 .65 2" class="cls-4"/>
                <path d="M25.91 39.23c-.91 0-1.8 0-2.68-.08a13.74 13.74 0 0 1-.55-2c1.07.07 2.17.1 3.28.1 0 .79 0 1.47-.06 2" class="cls-3"/>
                <path d="M29.08 39.08c-.89.08-1.8.13-2.71.14.06-.55.11-1.24.16-2 1.11 0 2.23-.07 3.31-.17a11.12 11.12 0 0 1-.77 2.07" class="cls-5"/>
                <path d="M32 38.66q-.73.14-1.56.26l-.95.11a10.48 10.48 0 0 0 .89-2.03l1.16-.14q1-.14 1.91-.31A9.77 9.77 0 0 1 32 38.66M34.3 38.05a14.92 14.92 0 0 1-1.92.54 9.93 9.93 0 0 0 1.52-2.16 18.3 18.3 0 0 0 2.35-.66 11.34 11.34 0 0 1-2 2.28M35.82 37.29a5.7 5.7 0 0 1-1.24.65 11.63 11.63 0 0 0 2-2.31 7 7 0 0 0 1.53-.8 13.49 13.49 0 0 1-2.3 2.46" class="cls-3"/>
                <path d="M38.25 34.87a16 16 0 0 1-1.85 1.94l-.36.31a13.8 13.8 0 0 0 2.26-2.45 2.48 2.48 0 0 0 .41-.41l-.46.6M17.11 38.4c-.36-.24-.83-.56-1.18-.83l.26.18q.44.34.91.65M20.22 39.93c-.19-.06-.36-.12-.53-.19a16.14 16.14 0 0 1-1.81-.88 12.24 12.24 0 0 1-1.49-1 8.14 8.14 0 0 0 1.5.62 9 9 0 0 0 2.33 1.43" class="cls-3"/>
                <path d="M21.83 40.31a13.08 13.08 0 0 1-1.41-.31 8.43 8.43 0 0 1-2.25-1.41 18.68 18.68 0 0 0 2 .46 5.55 5.55 0 0 0 1.65 1.27M23.75 40.54c-.58 0-1.13-.11-1.65-.19a5.14 5.14 0 0 1-1.53-1.24c.74.12 1.54.21 2.36.28a3.57 3.57 0 0 0 .83 1.17" class="cls-3"/>
                <path d="M25.83 40.62c-.61 0-1.21 0-1.79-.05a3.56 3.56 0 0 1-.7-1.16c.83.05 1.69.08 2.56.08 0 .51 0 .89-.07 1.13" class="cls-6"/>
                <path d="M27.95 40.52c-.6.05-1.2.08-1.81.1a7.68 7.68 0 0 0 .2-1.13c.87 0 1.74-.06 2.59-.13a3.72 3.72 0 0 1-1 1.18M29.91 40.25q-.49.1-1 .17l-.63.07a3.94 3.94 0 0 0 1.1-1.19l.91-.11q.79-.11 1.49-.24a6.26 6.26 0 0 1-1.82 1.3" class="cls-3"/>
                <path d="M31.46 39.84a10 10 0 0 1-1.28.36 6.74 6.74 0 0 0 1.93-1.32 14.28 14.28 0 0 0 1.83-.51 9.85 9.85 0 0 1-2.48 1.47" class="cls-3"/>
                <path d="M35.26 37.74c-.32.22-.74.53-1.08.73a18.78 18.78 0 0 1-2.52 1.28 10.37 10.37 0 0 0 2.55-1.5 5.45 5.45 0 0 0 1.2-.63l-.12.1M20.86 40.16l-.41-.16.19.06.22.07M23 40.69l-.48-.09c-.69-.15-.73-.17-1.12-.28h-.13l-.41-.14a12.06 12.06 0 0 0 1.3.29 4.27 4.27 0 0 0 .86.25" class="cls-3"/>
                <path d="M24.48 40.88h-.28l-.78-.1h-.19a3.72 3.72 0 0 1-.86-.25c.48.07 1 .14 1.53.18a1.2 1.2 0 0 0 .58.22" class="cls-3"/>
                <path d="M25.77 40.93h-1.09a.91.91 0 0 1-.5-.22c.54 0 1.09.05 1.65 0v.2M27.1 40.88h-1.13s.1-.07.15-.2c.56 0 1.12 0 1.65-.09a1.61 1.61 0 0 1-.67.22M28.94 40.59c-.71.14-.74.14-1.15.2l-.48.06a2 2 0 0 0 .73-.23l.58-.07 1-.16a5.21 5.21 0 0 1-.65.2" class="cls-3"/>
                <path d="M29.26 40.52a5.82 5.82 0 0 0 .57-.18 9.69 9.69 0 0 0 .95-.25 12 12 0 0 1-1.51.41" class="cls-3"/>
                <path d="M25.84.64v8.13" class="cls-9"/>
                <path d="M23.7 6.96h4.14v2.48H23.7z" class="cls-3"/>
            </g>
            <path d="M11.15 11.81L5.93 7.9M7.1 24.81l-6.6.18M10.94 35.68L6.5 41.12M40.99 11.81l5.22-3.91M45.04 24.81l6.61.18M41.21 35.68l4.44 5.44" class="cls-10"/>
        </g>
    </g>
</svg>
