<svg xmlns="http://www.w3.org/2000/svg" viewBox="0 0 43.74 44.19">
    <defs>
        <style>
            .cls-1{fill:#182347}.cls-1,.cls-2,.cls-4{stroke:#fff}.cls-1,.cls-2,.cls-4,.cls-5{stroke-miterlimit:10}.cls-2{fill:#f5a625}.cls-3{fill:#fff}.cls-4,.cls-5{fill:none}.cls-4{stroke-width:.4px}.cls-5{stroke:#d6d6d6;stroke-width:.8px}
        </style>
    </defs>
    <g id="图层_2" data-name="图层 2">
        <g id="图层_1-2" data-name="图层 1">
            <path d="M16.65 38.98h9.42v4.71h-9.42z" class="cls-1"/>
            <path d="M28 32.38c-1.81 1.12-1.88 3.53-1.88 5.65V39h-9.47v-1c0-2.13-.11-4.59-1.88-5.65a12.58 12.58 0 0 1-5.66-10.62 12.11 12.11 0 0 1 12.25-12 12.11 12.11 0 0 1 12.25 12A12.58 12.58 0 0 1 28 32.38z" class="cls-2"/>
            <path d="M23.25 30.15V39h-3.77v-8.85a5.64 5.64 0 0 1-3.77-5.31h3.39a2.26 2.26 0 1 0 4.52 0H27a5.64 5.64 0 0 1-3.75 5.31z" class="cls-3"/>
            <path d="M18.66 12.82A10 10 0 0 0 12.35 20" class="cls-4"/>
            <path d="M16.5 41.02l9.42.1" class="cls-5"/>
            <path d="M22 8.16c.17 0 .31-.1.31-.23.13-2.35.1-4.75.08-7.07V.28C22.36.11 22.22 0 22 0s-.41.1-.41.3v.65c0 2.29-.05 4.66.08 7a.27.27 0 0 0 .33.21zM10.43 3.6c1.08 2 2.19 4 3.42 6a.21.21 0 0 0 .18.1.25.25 0 0 0 .12 0 .34.34 0 0 0 .17-.4c-1-2.09-2.19-4.14-3.33-6.13l-.29-.5a.25.25 0 0 0-.36-.08c-.16.09-.32.33-.22.52zM9.08 14.81c-2-1-4.13-1.91-6.17-2.78l-.5-.21a.25.25 0 0 0-.33.16c-.07.17-.06.46.13.55l.58.26c2 .9 4.05 1.82 6.12 2.58H9a.22.22 0 0 0 .2-.15.34.34 0 0 0-.12-.41zM7.5 22.36c-2.23-.16-4.5-.15-6.72-.14H.25a.26.26 0 0 0-.25.29c0 .21.13.44.32.44h4.12c1.18 0 2.08 0 3.11-.07a.22.22 0 0 0 .21-.24.33.33 0 0 0-.26-.28zM29.59 9.64a.25.25 0 0 0 .12 0 .2.2 0 0 0 .18-.1c1.22-1.93 2.34-4 3.42-6l.31-.54c.1-.19-.06-.43-.22-.52a.25.25 0 0 0-.36.08l-.28.49c-1.14 2-2.31 4-3.33 6.14a.33.33 0 0 0 .16.45zM41.54 12.53c.19-.09.2-.38.13-.55a.25.25 0 0 0-.34-.16l-.51.22c-2 .86-4.15 1.75-6.16 2.77a.34.34 0 0 0-.11.42.22.22 0 0 0 .2.15h.08c2.07-.76 4.13-1.68 6.12-2.58zM43.49 22.23h-.54c-2.2 0-4.48 0-6.71.14a.33.33 0 0 0-.25.34.22.22 0 0 0 .21.24c1 .06 2.08.07 3.13.07h4.1c.19 0 .32-.23.32-.44a.26.26 0 0 0-.26-.35z" class="cls-3"/>
        </g>
    </g>
</svg>
