<?xml version="1.0" standalone="no"?><!DOCTYPE svg PUBLIC "-//W3C//DTD SVG 1.1//EN" "http://www.w3.org/Graphics/SVG/1.1/DTD/svg11.dtd"><svg t="1568100589316" class="icon" viewBox="0 0 1024 1024" version="1.1" xmlns="http://www.w3.org/2000/svg" p-id="34171" xmlns:xlink="http://www.w3.org/1999/xlink" width="200" height="200"><defs><style type="text/css"></style></defs><path d="M308.208059 514.628874c0-74.289983 7.641027-134.081765 22.931269-179.37432 15.283078-45.285393 37.999452-80.216973 68.149123-104.795764 30.143531-24.571628 68.075445-36.860513 113.796766-36.860513 33.712823 0 63.287395 6.79066 88.721671 20.3597 25.429159 13.57518 46.430472 33.150004 63.007009 58.719356 16.566304 25.576515 29.573549 56.723909 39.003316 93.437066 9.429767 36.72032 14.144138 86.224804 14.144138 148.513452 0 73.722048-7.574512 133.231397-22.716374 178.51679-15.150048 45.292556-37.792745 80.298837-67.936275 105.009635-30.149671 24.718985-68.222801 37.075407-114.224508 37.075407-60.581774 0-108.157325-21.712511-142.728702-65.149812C328.922846 717.791993 308.208059 632.645754 308.208059 514.628874zM387.50201 514.628874c0 103.155405 12.06785 171.806971 36.217876 205.948559 24.142863 34.148751 53.931307 51.219545 89.366354 51.219545 35.426861 0 65.215304-17.144472 89.36533-51.433416 24.143886-34.289967 36.217876-102.866832 36.217876-205.734688 0-103.435791-12.07399-172.153872-36.217876-206.161407-24.150026-34.001395-54.218856-51.004651-90.222861-51.004651-35.434024 0-63.7223 15.001669-84.865853 45.003983C400.788617 340.760964 387.50201 411.481655 387.50201 514.628874z" p-id="34172" fill="#ffffff"></path></svg>