<?xml version="1.0" standalone="no"?><!DOCTYPE svg PUBLIC "-//W3C//DTD SVG 1.1//EN" "http://www.w3.org/Graphics/SVG/1.1/DTD/svg11.dtd"><svg t="1568100245629" class="icon" viewBox="0 0 1024 1024" version="1.1" xmlns="http://www.w3.org/2000/svg" p-id="13918" xmlns:xlink="http://www.w3.org/1999/xlink" width="200" height="200"><defs><style type="text/css"></style></defs><path d="M921.013953 474.621694 549.377794 474.621694 549.377794 102.986559c0-20.635993-16.746406-37.381375-37.382399-37.381375-20.62883 0-37.373189 16.745383-37.373189 37.381375l0 371.635135L102.986047 474.621694c-20.635993 0-37.381375 16.746406-37.381375 37.382399 0 20.62883 16.745383 37.373189 37.381375 37.373189l371.635135 0 0 371.636159c0 20.669762 16.744359 37.380352 37.373189 37.380352 20.635993 0 37.382399-16.71059 37.382399-37.380352L549.376771 549.377282l371.636159 0c20.669762 0 37.380352-16.744359 37.380352-37.373189C958.394305 491.3681 941.683714 474.621694 921.013953 474.621694z" p-id="13919" fill="#ffffff"></path></svg>