<svg id="图层_1" data-name="图层 1" xmlns="http://www.w3.org/2000/svg" viewBox="0 0 347 365"><defs><style>.cls-1{fill:#fff;}</style></defs><title>do</title><path class="cls-1" d="M153.3,190a4.19,4.19,0,0,0-1.83-3.55,8,8,0,0,0-4.85-1.34,8.73,8.73,0,0,0-4.56,1,3.12,3.12,0,0,0-1.64,2.79q0,1.27,1.86,2.18a34.42,34.42,0,0,0,6.51,1.93q9.28,2.07,12.41,4.54t3.14,7.73a10.79,10.79,0,0,1-4.55,9.05q-4.55,3.43-12,3.43-8.83,0-13.59-3.37a12.08,12.08,0,0,1-5.08-9.84h10.27a5,5,0,0,0,2.34,4.13,10.78,10.78,0,0,0,6.07,1.49,9.1,9.1,0,0,0,4.73-1,3.23,3.23,0,0,0,1.71-2.9,2.62,2.62,0,0,0-1.65-2.21,25.35,25.35,0,0,0-5.8-1.79q-9.7-2.18-13-4.61t-3.27-7.42a11.34,11.34,0,0,1,4.24-9.19q4.23-3.5,11.16-3.5,7.8,0,12.58,3.43a10.63,10.63,0,0,1,4.78,9.05Z"/><path class="cls-1" d="M172,164.76h10.27v9.35H172Zm.11,13.82h10.09v38.25H172.08Z"/></svg>