<svg id="图层_1" data-name="图层 1" xmlns="http://www.w3.org/2000/svg" viewBox="0 0 347 365"><defs><style>.cls-1{fill:#fff;}</style></defs><title>do</title><path class="cls-1" d="M114.53,173.7h9.6v6.86a19.69,19.69,0,0,1,1.2-2.18q3.55-5.7,9.18-5.7l2.29,0V183a29.27,29.27,0,0,0-3-.14q-4.61,0-6.87,2.29t-2.27,6.93V212H114.53Z"/><path class="cls-1" d="M157.77,212.94q-8.72,0-13.45-5.38t-4.73-15.33q0-9.18,4.82-14.36t13.36-5.19q8.75,0,13.48,5.29T176,193a8.43,8.43,0,0,1-.18,2.29H149.75q.35,4.54,2,6.79,2.11,2.81,7,2.81a7.49,7.49,0,0,0,4.24-1.3,5,5,0,0,0,2.34-3.13h10.27a14.62,14.62,0,0,1-6,9.14A20.16,20.16,0,0,1,157.77,212.94Zm7.7-24a10.51,10.51,0,0,0-1.83-5.38q-1.93-2.57-6-2.57a6.74,6.74,0,0,0-5.94,3,13.2,13.2,0,0,0-1.83,5Z"/></svg>