<svg id="图层_1" data-name="图层 1" xmlns="http://www.w3.org/2000/svg" viewBox="0 0 347 365"><defs><style>.cls-1{fill:#fff;}</style></defs><title>do</title><path class="cls-1" d="M138.66,207.94a14.28,14.28,0,0,1-11.79-5.7q-4.48-5.7-4.48-15,0-8.79,4.46-14.17a14.52,14.52,0,0,1,11.74-5.38,12.34,12.34,0,0,1,10.48,5.48l.42.56V155.27h10.09V207H149.8v-4.89l-.18.25A13,13,0,0,1,138.66,207.94Zm2.71-31.54a7.41,7.41,0,0,0-6.33,3.11q-2.29,3.11-2.29,8.63T135,196.6a8,8,0,0,0,12.67-.16q2.29-3.2,2.29-8.89,0-5.24-2.29-8.19A7.55,7.55,0,0,0,141.37,176.4Z"/><path class="cls-1" d="M171.65,202.56q-5.29-5.38-5.29-14.52,0-9.35,5.29-14.85t14.26-5.5q9,0,14.31,5.5T205.49,188q0,9.14-5.27,14.52t-14.31,5.38Q176.94,207.94,171.65,202.56Zm21.11-6q2.36-3,2.36-8.61t-2.36-8.81a9.3,9.3,0,0,0-13.69,0q-2.34,3-2.34,8.81t2.34,8.61a9.41,9.41,0,0,0,13.69,0Z"/></svg>