<svg id="图层_1" data-name="图层 1" xmlns="http://www.w3.org/2000/svg" viewBox="0 0 347 365"><defs><style>.cls-1{fill:#e01818;stroke:#fff;}.cls-1,.cls-2{stroke-miterlimit:10;}.cls-2{fill:#fff;stroke:#666;}</style></defs><title>未标题-1</title><line class="cls-1" x1="54.75" y1="93.47" x2="314.87" y2="93.47"/><line class="cls-1" x1="54.75" y1="139.8" x2="314.87" y2="139.8"/><line class="cls-1" x1="54.75" y1="181.79" x2="314.87" y2="181.79"/><line class="cls-1" x1="54.75" y1="223.77" x2="314.87" y2="223.77"/><line class="cls-1" x1="54.75" y1="273" x2="314.87" y2="273"/><path class="cls-2" d="M161.8,271c19.67,0,37.89-13.66,37.89-35.19V130.74a4.14,4.14,0,1,0-8.28,0v99.1c-3.11-1.65-8.28-2.69-13-2.69-17,0-35.81,13.87-35.81,28.57C142.55,265.86,152.28,271,161.8,271Zm4-29c19.64-11.4,23.86-6.55,23.86-6.55s7.18,4.22-12.67,18.79-26.61,8.24-26.61,8.24S146.18,253.48,165.82,242.08Z"/></svg>