<svg id="图层_1" data-name="图层 1" xmlns="http://www.w3.org/2000/svg" viewBox="0 0 347 365"><defs><style>.cls-1{fill:#e01818;stroke:#fff;}.cls-1,.cls-2{stroke-miterlimit:10;}.cls-2{fill:#fff;stroke:#666;}</style></defs><title>未标题-1</title><line class="cls-1" x1="38.75" y1="86.47" x2="320.6" y2="86.47"/><line class="cls-1" x1="38.75" y1="136.67" x2="320.6" y2="136.67"/><line class="cls-1" x1="38.75" y1="182.17" x2="320.6" y2="182.17"/><line class="cls-1" x1="38.75" y1="227.66" x2="320.6" y2="227.66"/><line class="cls-1" x1="38.75" y1="281" x2="320.6" y2="281"/><line class="cls-1" x1="38.75" y1="86.47" x2="320.6" y2="86.47"/><line class="cls-1" x1="38.75" y1="136.67" x2="320.6" y2="136.67"/><line class="cls-1" x1="38.75" y1="182.17" x2="320.6" y2="182.17"/><line class="cls-1" x1="38.75" y1="227.66" x2="320.6" y2="227.66"/><line class="cls-1" x1="38.75" y1="281" x2="320.6" y2="281"/><path class="cls-2" d="M191.49,150.56s-2.8,17.74-14,16.8-13.07-12.14-11.2-19.61-20.54-19.61-34.54-.93,4.67,35.48,25.21,34.54,28.94-2.8,28.94-2.8l-32.68,96.16,14-.93,41.08-121.37S204.56,140.29,191.49,150.56Z"/></svg>