<svg id="图层_1" data-name="图层 1" xmlns="http://www.w3.org/2000/svg" viewBox="0 0 347 365"><defs><style>.cls-1{fill:#fff;}</style></defs><title>do</title><path class="cls-1" d="M128.53,179.7h9.6v6.15a11.66,11.66,0,0,1,1.68-2.88q3.33-4.29,9.69-4.29a10.91,10.91,0,0,1,8.28,3.41,10.45,10.45,0,0,1,2,2.88l1.23-2q3.13-4.29,9.12-4.29,6.23,0,9.75,3.69t3.52,10.23V218H173.32V195.49q0-4.29-1.41-6.35a4.93,4.93,0,0,0-4.37-2.06,6,6,0,0,0-4.85,2,8.38,8.38,0,0,0-1.67,5.61V218H150.92V193.84a7.5,7.5,0,0,0-1.47-5.1,6.79,6.79,0,0,0-9.2.3,8.53,8.53,0,0,0-1.63,5.61V218H128.53Z"/><path class="cls-1" d="M192.9,165.89h10.27v9.35H192.9ZM193,179.7h10.09V218H193Z"/></svg>