<svg id="图层_1" data-name="图层 1" xmlns="http://www.w3.org/2000/svg" viewBox="0 0 347 365"><defs><style>.cls-1{fill:#fff;}</style></defs><title>do</title><path class="cls-1" d="M149.36,188.65v31.18H139.27V188.65h-5.59v-7.07h5.59v-3.2q0-5.52,2.94-8.23t8.91-2.71a32.54,32.54,0,0,1,4.75.25v8.05h-3.2a3.33,3.33,0,0,0-2.65.81,5.71,5.71,0,0,0-.65,3.3v1.72h6.5v7.07Z"/><path class="cls-1" d="M170.8,220.81a12,12,0,0,1-8.54-3,10.47,10.47,0,0,1-3.23-8,11.84,11.84,0,0,1,2.92-8.38q2.92-3.15,8.51-4l6.64-.91a14.19,14.19,0,0,0,4.32-1.2,2.39,2.39,0,0,0,1.14-1.27,3.56,3.56,0,0,0,.3-1.86,3.41,3.41,0,0,0-1.65-2.53,9.32,9.32,0,0,0-5-1.09,6.64,6.64,0,0,0-4.5,1.41,5.29,5.29,0,0,0-1.72,4h-9.67q.32-6.71,4.57-10.05t12.48-3.34q7.14,0,11.27,3a9.62,9.62,0,0,1,4.13,8.22v21.4a10.68,10.68,0,0,0,.42,3.61,3.16,3.16,0,0,0,1.69,1.64v1.41H184v0a24.94,24.94,0,0,1-.88-4.54l0-.07A15.35,15.35,0,0,1,170.8,220.81Zm12.13-15.12V201.3a16.43,16.43,0,0,1-4.64,1.58l-3.73.7a7.69,7.69,0,0,0-4,1.81,4.41,4.41,0,0,0-1.37,3.32,5,5,0,0,0,1.23,3.59,4.51,4.51,0,0,0,3.45,1.3,9.61,9.61,0,0,0,7.73-3.41,5.5,5.5,0,0,0,.95-2A8.86,8.86,0,0,0,182.93,205.7Z"/></svg>