<svg id="图层_1" data-name="图层 1" xmlns="http://www.w3.org/2000/svg" viewBox="0 0 347 365"><defs><style>.cls-1{fill:#e01818;stroke:#fff;}.cls-1,.cls-2{stroke-miterlimit:10;}.cls-2{fill:#fff;stroke:#666;}</style></defs><title>未标题-1</title><line class="cls-1" x1="51.75" y1="95.47" x2="308" y2="95.47"/><line class="cls-1" x1="51.75" y1="141.11" x2="308" y2="141.11"/><line class="cls-1" x1="51.75" y1="182.47" x2="308" y2="182.47"/><line class="cls-1" x1="51.75" y1="223.84" x2="308" y2="223.84"/><line class="cls-1" x1="51.75" y1="272.33" x2="308" y2="272.33"/><path class="cls-2" d="M174.91,154.61c-25.23,0-45.68,13.63-45.68,30.45s20.45,30.45,45.68,30.45,45.68-13.63,45.68-30.45S200.14,154.61,174.91,154.61Zm16.24,50.65c-8,6.76-22.24,2.87-31.86-8.68s-11-26.39-3-33.15,22.24-2.87,31.86,8.68S199.12,198.5,191.15,205.26Z"/></svg>