<svg id="图层_1" data-name="图层 1" xmlns="http://www.w3.org/2000/svg" viewBox="0 0 347 365"><defs><style>.cls-1{fill:#fff;}</style></defs><title>do</title><path class="cls-1" d="M167.3,193a4.19,4.19,0,0,0-1.83-3.55,8,8,0,0,0-4.85-1.34,8.73,8.73,0,0,0-4.56,1,3.12,3.12,0,0,0-1.64,2.79q0,1.27,1.86,2.18a34.42,34.42,0,0,0,6.51,1.93q9.28,2.07,12.41,4.54t3.14,7.73a10.79,10.79,0,0,1-4.55,9.05q-4.55,3.43-12,3.43-8.83,0-13.59-3.37a12.08,12.08,0,0,1-5.08-9.84h10.27a5,5,0,0,0,2.34,4.13,10.78,10.78,0,0,0,6.07,1.49,9.1,9.1,0,0,0,4.73-1,3.23,3.23,0,0,0,1.71-2.9,2.62,2.62,0,0,0-1.65-2.21,25.35,25.35,0,0,0-5.8-1.79q-9.7-2.18-13-4.61t-3.27-7.42a11.34,11.34,0,0,1,4.24-9.19q4.23-3.5,11.16-3.5,7.8,0,12.58,3.43a10.63,10.63,0,0,1,4.78,9.05Z"/><path class="cls-1" d="M188.77,215.44q-5.29-5.38-5.29-14.52,0-9.35,5.29-14.85t14.26-5.5q9,0,14.31,5.5t5.27,14.85q0,9.14-5.27,14.52T203,220.81Q194.06,220.81,188.77,215.44Zm21.11-6q2.36-3,2.36-8.61T209.88,192a9.3,9.3,0,0,0-13.69,0q-2.34,3-2.34,8.81t2.34,8.61a9.41,9.41,0,0,0,13.69,0Z"/><path class="cls-1" d="M230,168.15H240v51.68H230Z"/></svg>