<svg id="图层_1" data-name="图层 1" xmlns="http://www.w3.org/2000/svg" viewBox="0 0 347 365"><defs><style>.cls-1{fill:#e01818;stroke:#fff;}.cls-1,.cls-2{stroke-miterlimit:10;}.cls-2{fill:#fff;stroke:#666;}</style></defs><title>未标题-1</title><line class="cls-1" x1="35.75" y1="89.47" x2="312" y2="89.47"/><line class="cls-1" x1="35.75" y1="138.67" x2="312" y2="138.67"/><line class="cls-1" x1="35.75" y1="183.27" x2="312" y2="183.27"/><line class="cls-1" x1="35.75" y1="227.86" x2="312" y2="227.86"/><line class="cls-1" x1="35.75" y1="280.14" x2="312" y2="280.14"/><line class="cls-1" x1="35.75" y1="89.47" x2="312" y2="89.47"/><line class="cls-1" x1="35.75" y1="138.67" x2="312" y2="138.67"/><line class="cls-1" x1="35.75" y1="183.27" x2="312" y2="183.27"/><line class="cls-1" x1="35.75" y1="227.86" x2="312" y2="227.86"/><line class="cls-1" x1="35.75" y1="280.14" x2="312" y2="280.14"/><path class="cls-2" d="M180.28,98.38c0,18.46,10.57,32.11,22.3,42.3s24.8,25.19,24.8,43.26c0,16.15-6.92,32.11-16.15,46.91h-5c4.23-8.84,12.11-25,12.11-40.37a45,45,0,0,0-35.18-44.42v96.52c0,20-16.92,32.69-35.18,32.69-8.85,0-17.88-4.81-17.88-14.23,0-13.65,17.5-26.53,33.26-26.53,4.42,0,9.23,1,12.11,2.5V98.38Z"/></svg>