<svg xmlns="http://www.w3.org/2000/svg" viewBox="0 0 35.23 44.51">
    <defs>
        <style>
            .cls-1,.cls-8{fill:#fff}.cls-2{fill:#0f1010}.cls-3{fill:#21211f}.cls-4{fill:#191918}.cls-5{fill:#d36232}.cls-6{fill:#a32c28}.cls-7{fill:#1b5da3}.cls-8{opacity:.1}.cls-9{fill:#2e2f2d}.cls-10{fill:#4ea5a0}
        </style>
    </defs>
    <g id="图层_2" data-name="图层 2">
        <g id="图层_1-2" data-name="图层 1">
            <path d="M17.64 5.41a14.21 14.21 0 0 1 10.43 4.33 15.25 15.25 0 0 1 2.45 3.17l-2.22 1.25a12.67 12.67 0 0 0-2-2.62 11.76 11.76 0 0 0-8.64-3.59h-.28A11.78 11.78 0 0 0 9 11.53a12.48 12.48 0 0 0-2 2.63L4.72 12.9a15.23 15.23 0 0 1 2.45-3.16 14.17 14.17 0 0 1 10.08-4.32 2.51 2.51 0 0 1 .39-.01z" class="cls-1"/>
            <path d="M33 11.5a18.3 18.3 0 0 0-2.93-3.78 17 17 0 0 0-12.45-5.17h-.29A17 17 0 0 0 5.14 7.72a18.2 18.2 0 0 0-2.92 3.77L0 10.23a20.72 20.72 0 0 1 3.34-4.3A19.43 19.43 0 0 1 17.31 0h.3a19.46 19.46 0 0 1 14.27 5.93 21 21 0 0 1 3.35 4.33z" class="cls-1"/>
            <path d="M1.95 39.27h6.79v4.27a1 1 0 0 1-1 1H2.93a1 1 0 0 1-1-1v-4.27h.02zM25.59 39.27h6.79v4.27a1 1 0 0 1-1 1h-4.82a1 1 0 0 1-1-1v-4.27h.03z" class="cls-2"/>
            <path d="M1.56 34.74h31.21a.91.91 0 0 1 .91.91v2.25A2.72 2.72 0 0 1 31 40.62H3.37A2.72 2.72 0 0 1 .65 37.9v-2.26a.91.91 0 0 1 .91-.9z" class="cls-3"/>
            <path d="M2 31.46a5.18 5.18 0 0 0-.41 2v1.26H32.7v-1.24a5.19 5.19 0 0 0-.41-2z" class="cls-4"/>
            <path d="M2 31.46h30.29a5.18 5.18 0 0 0-1-1.49l-1.64-1.8H4.63L3 30a5.19 5.19 0 0 0-1 1.46z" class="cls-3"/>
            <path d="M27.28 20.6a1.72 1.72 0 0 0-1.64-1.2h-17A1.72 1.72 0 0 0 7 20.6l-2.37 7.58h25.06z" class="cls-3"/>
            <path d="M2 31.46a5.18 5.18 0 0 0-.41 2v1.26h8.51l-1.81-3.26z" class="cls-1"/>
            <path d="M2 31.46a5.18 5.18 0 0 0-.41 2v1.26h1.77v-3.26z" class="cls-5"/>
            <path d="M32.29 31.46a5.19 5.19 0 0 1 .41 2v1.26h-8.48L26 31.46z" class="cls-1"/>
            <path d="M32.29 31.46a5.19 5.19 0 0 1 .41 2v1.26H31v-3.26z" class="cls-5"/>
            <rect width="7.32" height="2.25" x="13.44" y="36.85" class="cls-1" rx=".24" ry=".24"/>
            <path d="M17.16 31.83h-7.7l1.22 2.3h12.96l1.22-2.3h-7.7z" class="cls-2"/>
            <path d="M10.8 18.3h12.72v.77a.32.32 0 0 1-.32.32H11.12a.32.32 0 0 1-.32-.32v-.77z" class="cls-3" transform="rotate(180 17.16 18.85)"/>
            <path d="M21.11 16.24h-8a2.07 2.07 0 0 0-2.01 2.06h12.08a2.07 2.07 0 0 0-2.07-2.06z" class="cls-6"/>
            <path d="M21.11 16.24h-4v2.06h6a2.07 2.07 0 0 0-2-2.06z" class="cls-7"/>
            <path d="M12.23 17.43h9.64a.37.37 0 0 0 .37-.37.37.37 0 0 0-.37-.37h-9.64a.37.37 0 0 0-.37.37.37.37 0 0 0 .37.37zM11.4 19h11.3a.25.25 0 0 0 .25-.25.25.25 0 0 0-.25-.25H11.4a.25.25 0 0 0-.25.25.25.25 0 0 0 .25.25zM2.17 35.71h30a.25.25 0 0 0 .25-.25.25.25 0 0 0-.25-.25h-30a.25.25 0 0 0-.25.25.25.25 0 0 0 .25.25zM13.34 40.06h7.53a.25.25 0 0 0 .25-.25.25.25 0 0 0-.25-.25h-7.53a.25.25 0 0 0-.25.25.25.25 0 0 0 .25.25z" class="cls-8"/>
            <path d="M3.44 28.18h2.7v-2.26h-2.7A1.13 1.13 0 0 0 2.3 27a1.13 1.13 0 0 0 1.14 1.18zM30.88 28.18h-2.7v-2.26h2.7A1.13 1.13 0 0 1 32 27a1.13 1.13 0 0 1-1.12 1.18z" class="cls-3"/>
            <path d="M6.13 28.18l2.16 3.28h17.74l2.16-3.28H6.13z" class="cls-9"/>
            <path d="M26.4 21.3a1.24 1.24 0 0 0-1.19-.89H9.11a1.24 1.24 0 0 0-1.19.89l-1.79 6.13h22.06z" class="cls-10"/>
            <path d="M21.13 20.41l-7 7h4.55l7-7a1.24 1.24 0 0 0-.4-.07zM17.16 20.41h-6.13l-4.02 4.01-.88 3.01h5.58l7.02-7.02h-1.57zM28.19 27.43l-1.73-5.95-5.94 5.95h7.67zM8.7 31.29h16.92a.25.25 0 0 0 .25-.25.25.25 0 0 0-.25-.25H8.7a.25.25 0 0 0-.25.25.25.25 0 0 0 .25.25z" class="cls-8"/>
        </g>
    </g>
</svg>
