<?xml version="1.0" encoding="UTF-8" standalone="no"?>
<svg
   xmlns:dc="http://purl.org/dc/elements/1.1/"
   xmlns:cc="http://creativecommons.org/ns#"
   xmlns:rdf="http://www.w3.org/1999/02/22-rdf-syntax-ns#"
   xmlns:svg="http://www.w3.org/2000/svg"
   xmlns="http://www.w3.org/2000/svg"
   xmlns:sodipodi="http://sodipodi.sourceforge.net/DTD/sodipodi-0.dtd"
   xmlns:inkscape="http://www.inkscape.org/namespaces/inkscape"
   viewBox="0 0 80 80"
   version="1.1"
   id="svg4539"
   sodipodi:docname="light_sound_play_eighth_c.svg"
   inkscape:version="0.92.1 r15371">
  <metadata
     id="metadata4543">
    <rdf:RDF>
      <cc:Work
         rdf:about="">
        <dc:format>image/svg+xml</dc:format>
        <dc:type
           rdf:resource="http://purl.org/dc/dcmitype/StillImage" />
      </cc:Work>
    </rdf:RDF>
  </metadata>
  <sodipodi:namedview
     pagecolor="#ffffff"
     bordercolor="#666666"
     borderopacity="1"
     objecttolerance="10"
     gridtolerance="10"
     guidetolerance="10"
     inkscape:pageopacity="0"
     inkscape:pageshadow="2"
     inkscape:window-width="1920"
     inkscape:window-height="1018"
     id="namedview4541"
     showgrid="false"
     inkscape:zoom="2.95"
     inkscape:cx="40"
     inkscape:cy="40"
     inkscape:window-x="-8"
     inkscape:window-y="140"
     inkscape:window-maximized="1"
     inkscape:current-layer="Work_area_squares" />
  <defs
     id="defs4513">
    <style
       id="style4511">.cls-1{fill:#96f;}.cls-2{fill:none;stroke:#fff;stroke-linecap:round;stroke-miterlimit:10;stroke-width:2px;}.cls-3{fill:#231f20;}</style>
  </defs>
  <title
     id="title4515">light_sound_play_eighth_c</title>
  <g
     id="Layer_2"
     data-name="Layer 2">
    <g
       id="Work_area_squares"
       data-name="Work area squares">
      <rect
         class="cls-1"
         width="80"
         height="80"
         id="rect4517"
         style="fill:#9966ff;fill-opacity:0" />
    </g>
    <g
       id="Edison_Icons"
       data-name="Edison Icons">
      <line
         class="cls-2"
         x1="3.32"
         y1="16"
         x2="76.68"
         y2="16"
         id="line4520" />
      <line
         class="cls-2"
         x1="3.32"
         y1="26"
         x2="76.68"
         y2="26"
         id="line4522" />
      <line
         class="cls-2"
         x1="3.32"
         y1="36"
         x2="76.68"
         y2="36"
         id="line4524" />
      <line
         class="cls-2"
         x1="3.32"
         y1="46"
         x2="76.68"
         y2="46"
         id="line4526" />
      <line
         class="cls-2"
         x1="3.32"
         y1="56"
         x2="76.68"
         y2="56"
         id="line4528" />
      <path
         class="cls-3"
         d="M35,46.34c0-.17,0-.3,0-.4,0-1.61-2.83-9.48-10.39-9.48a15.2,15.2,0,0,0-1.62.09l-1-5.13s-.29-1.34-.63-3.05c4.65-3.43,10-10,10-17.58C31.26,3.52,28.53.8,26,.67,22.81.51,19,4.19,18.16,11.33a40.22,40.22,0,0,0,.54,11.23,43.72,43.72,0,0,0-8.35,7C7,33.22,4.74,38.49,4.74,42.68a16.14,16.14,0,0,0,2.71,9c2.82,4,7.51,6,14,6h.54a12.7,12.7,0,0,0,1.39-.08h0a23.74,23.74,0,0,0,2.44-.28,79,79,0,0,1,1,8.16c.14,3.4-.53,5.75-2.05,7.19-1.23,1.17-3,1.74-5.5,1.74a6.09,6.09,0,0,1-4.1-1.58,5.82,5.82,0,0,0,4.64-5,3.05,3.05,0,0,0-1-2.31A6.65,6.65,0,0,0,14.44,64a3.86,3.86,0,0,0-2.79,1.09A5.37,5.37,0,0,0,9.94,69s0,.07,0,.11a.39.39,0,0,0,0,.08C10.1,71.36,12.2,75.59,19,76l.8,0a8.13,8.13,0,0,0,5.72-1.94c1.93-1.78,2.83-4.84,2.52-8.61-.12-1.53-.53-4.33-1.22-8.32C32.5,55.8,35.23,52.17,35,46.34ZM23.27,56.83c-.67,0-1.26.07-1.85.07-5-.26-13.27-2.3-13.27-13,0-7,10.46-13.75,11.9-14.65.18.77.35,1.51.52,2.2L21,33.18c.26,1.15.53,2.33.79,3.53-5.77,1.06-8,5.16-8.16,7.73a8.17,8.17,0,0,0,6.12,8.39.45.45,0,0,0,.52-.22.38.38,0,0,0-.18-.5,6.47,6.47,0,0,1-3.05-6c.14-3,2.93-4.51,5.76-4.76,1.12,5.37,2.12,10.63,2.83,14.89A9.21,9.21,0,0,1,23.27,56.83Zm0-49.13A3.84,3.84,0,0,1,26,6.6a1.88,1.88,0,0,1,1.47.6c.93,1,1,3.26.6,5-.43,2-2.57,5-5.34,7.44a26.22,26.22,0,0,1-2.52,1.88C20,14.78,21.09,9.73,23.25,7.7Zm6,35.83a5.2,5.2,0,0,1,1.87,3.78c0,2.79-1.22,6.59-4.52,8.47-.63-3.62-1.34-7.36-1.8-9.72l-.93-4.72A8.56,8.56,0,0,1,29.26,43.53Z"
         id="path4530" />
      <line
         class="cls-2"
         x1="41.35"
         y1="66"
         x2="65.35"
         y2="66"
         id="line4532" />
    </g>
    <g
       id="Music_Notes"
       data-name="Music Notes">
      <path
         class="cls-3"
         d="M66.36,45.37C61.42,42.66,59.5,36,59.5,36v25.8A11,11,0,0,0,53.35,60c-5,0-9,2.91-9,6.5s4,6.5,9,6.5,9-2.91,9-6.5V46.94c.7.19,2.08.58,3.19,1C71.06,50,72.17,57.62,69.64,61,73,57.84,72,48.5,66.36,45.37Z"
         id="path4535" />
    </g>
  </g>
</svg>
